{
    "asset" : {
        "generator" : "Khronos glTF Blender I/O v1.7.33",
        "version" : "2.0"
    },
    "scene" : 0,
    "scenes" : [
        {
            "name" : "Scene",
            "nodes" : [
                0
            ]
        }
    ],
    "nodes" : [
        {
            "mesh" : 0,
            "name" : "Planet_3"
        }
    ],
    "materials" : [
        {
            "doubleSided" : true,
            "name" : "Atlas",
            "pbrMetallicRoughness" : {
                "baseColorTexture" : {
                    "index" : 0
                },
                "metallicFactor" : 0,
                "roughnessFactor" : 0.5
            }
        }
    ],
    "meshes" : [
        {
            "name" : "Icosphere.004",
            "primitives" : [
                {
                    "attributes" : {
                        "POSITION" : 0,
                        "NORMAL" : 1,
                        "TEXCOORD_0" : 2
                    },
                    "indices" : 3,
                    "material" : 0
                }
            ]
        }
    ],
    "textures" : [
        {
            "sampler" : 0,
            "source" : 0
        }
    ],
    "images" : [
        {
            "bufferView" : 4,
            "mimeType" : "image/png",
            "name" : "Atlas"
        }
    ],
    "accessors" : [
        {
            "bufferView" : 0,
            "componentType" : 5126,
            "count" : 2440,
            "max" : [
                1.7661746740341187,
                1.7822192907333374,
                1.8313835859298706
            ],
            "min" : [
                -1.8589541912078857,
                -1.8704442977905273,
                -1.5446783304214478
            ],
            "type" : "VEC3"
        },
        {
            "bufferView" : 1,
            "componentType" : 5126,
            "count" : 2440,
            "type" : "VEC3"
        },
        {
            "bufferView" : 2,
            "componentType" : 5126,
            "count" : 2440,
            "type" : "VEC2"
        },
        {
            "bufferView" : 3,
            "componentType" : 5123,
            "count" : 7200,
            "type" : "SCALAR"
        }
    ],
    "bufferViews" : [
        {
            "buffer" : 0,
            "byteLength" : 29280,
            "byteOffset" : 0
        },
        {
            "buffer" : 0,
            "byteLength" : 29280,
            "byteOffset" : 29280
        },
        {
            "buffer" : 0,
            "byteLength" : 19520,
            "byteOffset" : 58560
        },
        {
            "buffer" : 0,
            "byteLength" : 14400,
            "byteOffset" : 78080
        },
        {
            "buffer" : 0,
            "byteLength" : 626,
            "byteOffset" : 92480
        }
    ],
    "samplers" : [
        {
            "magFilter" : 9729,
            "minFilter" : 9987
        }
    ],
    "buffers" : [
        {
            "byteLength" : 93108,
            "uri" : "data:application/octet-stream;base64,"
        }
    ]
}
