{
    "asset" : {
        "generator" : "Khronos glTF Blender I/O v1.7.33",
        "version" : "2.0"
    },
    "scene" : 0,
    "scenes" : [
        {
            "name" : "Scene",
            "nodes" : [
                0
            ]
        }
    ],
    "nodes" : [
        {
            "mesh" : 0,
            "name" : "Rock_4"
        }
    ],
    "materials" : [
        {
            "doubleSided" : true,
            "name" : "Atlas",
            "pbrMetallicRoughness" : {
                "baseColorTexture" : {
                    "index" : 0
                },
                "metallicFactor" : 0,
                "roughnessFactor" : 0.5
            }
        }
    ],
    "meshes" : [
        {
            "name" : "Cube.025",
            "primitives" : [
                {
                    "attributes" : {
                        "POSITION" : 0,
                        "NORMAL" : 1,
                        "TEXCOORD_0" : 2
                    },
                    "indices" : 3,
                    "material" : 0
                }
            ]
        }
    ],
    "textures" : [
        {
            "sampler" : 0,
            "source" : 0
        }
    ],
    "images" : [
        {
            "bufferView" : 4,
            "mimeType" : "image/png",
            "name" : "Atlas"
        }
    ],
    "accessors" : [
        {
            "bufferView" : 0,
            "componentType" : 5126,
            "count" : 596,
            "max" : [
                1.0763945579528809,
                3.0685627460479736,
                0.684401273727417
            ],
            "min" : [
                -1.0796103477478027,
                -0.3949895203113556,
                -1.0160661935806274
            ],
            "type" : "VEC3"
        },
        {
            "bufferView" : 1,
            "componentType" : 5126,
            "count" : 596,
            "type" : "VEC3"
        },
        {
            "bufferView" : 2,
            "componentType" : 5126,
            "count" : 596,
            "type" : "VEC2"
        },
        {
            "bufferView" : 3,
            "componentType" : 5123,
            "count" : 1368,
            "type" : "SCALAR"
        }
    ],
    "bufferViews" : [
        {
            "buffer" : 0,
            "byteLength" : 7152,
            "byteOffset" : 0
        },
        {
            "buffer" : 0,
            "byteLength" : 7152,
            "byteOffset" : 7152
        },
        {
            "buffer" : 0,
            "byteLength" : 4768,
            "byteOffset" : 14304
        },
        {
            "buffer" : 0,
            "byteLength" : 2736,
            "byteOffset" : 19072
        },
        {
            "buffer" : 0,
            "byteLength" : 626,
            "byteOffset" : 21808
        }
    ],
    "samplers" : [
        {
            "magFilter" : 9729,
            "minFilter" : 9987
        }
    ],
    "buffers" : [
        {
            "byteLength" : 22436,
            "uri" : "data:application/octet-stream;base64,"
        }
    ]
}
