{
    "asset" : {
        "generator" : "Khronos glTF Blender I/O v1.7.33",
        "version" : "2.0"
    },
    "scene" : 0,
    "scenes" : [
        {
            "name" : "Scene",
            "nodes" : [
                0
            ]
        }
    ],
    "nodes" : [
        {
            "mesh" : 0,
            "name" : "Barrier_Trash",
            "rotation" : [
                0.7071068286895752,
                0,
                0,
                0.7071068286895752
            ],
            "scale" : [
                0.5884221792221069,
                0.5884221792221069,
                0.5884221792221069
            ]
        }
    ],
    "materials" : [
        {
            "doubleSided" : true,
            "name" : "Wood",
            "pbrMetallicRoughness" : {
                "baseColorFactor" : [
                    0.3757452964782715,
                    0.20292167365550995,
                    0.0587104856967926,
                    1
                ],
                "metallicFactor" : 0,
                "roughnessFactor" : 0.5
            }
        },
        {
            "doubleSided" : true,
            "name" : "Wood_Light",
            "pbrMetallicRoughness" : {
                "baseColorFactor" : [
                    0.6382654905319214,
                    0.3720409572124481,
                    0.1016932800412178,
                    1
                ],
                "metallicFactor" : 0,
                "roughnessFactor" : 0.5
            }
        },
        {
            "doubleSided" : true,
            "name" : "Sack",
            "pbrMetallicRoughness" : {
                "baseColorFactor" : [
                    0.3505513072013855,
                    0.29693713784217834,
                    0.18478049337863922,
                    1
                ],
                "metallicFactor" : 0,
                "roughnessFactor" : 0.5
            }
        },
        {
            "doubleSided" : true,
            "name" : "Black",
            "pbrMetallicRoughness" : {
                "baseColorFactor" : [
                    0.02364896982908249,
                    0.02364896982908249,
                    0.02364896982908249,
                    1
                ],
                "metallicFactor" : 0,
                "roughnessFactor" : 0.5
            }
        },
        {
            "doubleSided" : true,
            "name" : "Grey",
            "pbrMetallicRoughness" : {
                "baseColorFactor" : [
                    0.2746773064136505,
                    0.28744083642959595,
                    0.35153263807296753,
                    1
                ],
                "metallicFactor" : 0,
                "roughnessFactor" : 0.5
            }
        },
        {
            "doubleSided" : true,
            "name" : "Red",
            "pbrMetallicRoughness" : {
                "baseColorFactor" : [
                    0.3263714909553528,
                    0.047813333570957184,
                    0.044884875416755676,
                    1
                ],
                "metallicFactor" : 0,
                "roughnessFactor" : 0.5
            }
        }
    ],
    "meshes" : [
        {
            "name" : "Cube.040",
            "primitives" : [
                {
                    "attributes" : {
                        "POSITION" : 0,
                        "NORMAL" : 1
                    },
                    "indices" : 2,
                    "material" : 0
                },
                {
                    "attributes" : {
                        "POSITION" : 3,
                        "NORMAL" : 4
                    },
                    "indices" : 5,
                    "material" : 1
                },
                {
                    "attributes" : {
                        "POSITION" : 6,
                        "NORMAL" : 7
                    },
                    "indices" : 8,
                    "material" : 2
                },
                {
                    "attributes" : {
                        "POSITION" : 9,
                        "NORMAL" : 10
                    },
                    "indices" : 11,
                    "material" : 3
                },
                {
                    "attributes" : {
                        "POSITION" : 12,
                        "NORMAL" : 13
                    },
                    "indices" : 14,
                    "material" : 4
                },
                {
                    "attributes" : {
                        "POSITION" : 15,
                        "NORMAL" : 16
                    },
                    "indices" : 17,
                    "material" : 5
                }
            ]
        }
    ],
    "accessors" : [
        {
            "bufferView" : 0,
            "componentType" : 5126,
            "count" : 1482,
            "max" : [
                3.151057243347168,
                0.32582566142082214,
                -0.014232456684112549
            ],
            "min" : [
                -3.1971006393432617,
                -0.056202564388513565,
                -4.231932640075684
            ],
            "type" : "VEC3"
        },
        {
            "bufferView" : 1,
            "componentType" : 5126,
            "count" : 1482,
            "type" : "VEC3"
        },
        {
            "bufferView" : 2,
            "componentType" : 5123,
            "count" : 2274,
            "type" : "SCALAR"
        },
        {
            "bufferView" : 3,
            "componentType" : 5126,
            "count" : 170,
            "max" : [
                3.1150646209716797,
                0.2909688949584961,
                -0.023287057876586914
            ],
            "min" : [
                -2.8123576641082764,
                -0.024093622341752052,
                -3.74831223487854
            ],
            "type" : "VEC3"
        },
        {
            "bufferView" : 4,
            "componentType" : 5126,
            "count" : 170,
            "type" : "VEC3"
        },
        {
            "bufferView" : 5,
            "componentType" : 5123,
            "count" : 204,
            "type" : "SCALAR"
        },
        {
            "bufferView" : 6,
            "componentType" : 5126,
            "count" : 1188,
            "max" : [
                3.6794912815093994,
                0.9368072748184204,
                0.02028772607445717
            ],
            "min" : [
                -3.948395252227783,
                -0.8768850564956665,
                -1.219756007194519
            ],
            "type" : "VEC3"
        },
        {
            "bufferView" : 7,
            "componentType" : 5126,
            "count" : 1188,
            "type" : "VEC3"
        },
        {
            "bufferView" : 8,
            "componentType" : 5123,
            "count" : 6912,
            "type" : "SCALAR"
        },
        {
            "bufferView" : 9,
            "componentType" : 5126,
            "count" : 544,
            "max" : [
                -0.8165396451950073,
                1.3489447832107544,
                -0.01749708317220211
            ],
            "min" : [
                -2.0163373947143555,
                0.17177534103393555,
                -1.1317449808120728
            ],
            "type" : "VEC3"
        },
        {
            "bufferView" : 10,
            "componentType" : 5126,
            "count" : 544,
            "type" : "VEC3"
        },
        {
            "bufferView" : 11,
            "componentType" : 5123,
            "count" : 2664,
            "type" : "SCALAR"
        },
        {
            "bufferView" : 12,
            "componentType" : 5126,
            "count" : 277,
            "max" : [
                3.455652952194214,
                0.13250942528247833,
                0.03281664848327637
            ],
            "min" : [
                -3.433454751968384,
                -0.12100617587566376,
                -3.9699792861938477
            ],
            "type" : "VEC3"
        },
        {
            "bufferView" : 13,
            "componentType" : 5126,
            "count" : 277,
            "type" : "VEC3"
        },
        {
            "bufferView" : 14,
            "componentType" : 5123,
            "count" : 417,
            "type" : "SCALAR"
        },
        {
            "bufferView" : 15,
            "componentType" : 5126,
            "count" : 212,
            "max" : [
                3.271989345550537,
                0.06641975790262222,
                -2.0822274684906006
            ],
            "min" : [
                -3.330084800720215,
                -0.0422155000269413,
                -4.193558692932129
            ],
            "type" : "VEC3"
        },
        {
            "bufferView" : 16,
            "componentType" : 5126,
            "count" : 212,
            "type" : "VEC3"
        },
        {
            "bufferView" : 17,
            "componentType" : 5123,
            "count" : 312,
            "type" : "SCALAR"
        }
    ],
    "bufferViews" : [
        {
            "buffer" : 0,
            "byteLength" : 17784,
            "byteOffset" : 0
        },
        {
            "buffer" : 0,
            "byteLength" : 17784,
            "byteOffset" : 17784
        },
        {
            "buffer" : 0,
            "byteLength" : 4548,
            "byteOffset" : 35568
        },
        {
            "buffer" : 0,
            "byteLength" : 2040,
            "byteOffset" : 40116
        },
        {
            "buffer" : 0,
            "byteLength" : 2040,
            "byteOffset" : 42156
        },
        {
            "buffer" : 0,
            "byteLength" : 408,
            "byteOffset" : 44196
        },
        {
            "buffer" : 0,
            "byteLength" : 14256,
            "byteOffset" : 44604
        },
        {
            "buffer" : 0,
            "byteLength" : 14256,
            "byteOffset" : 58860
        },
        {
            "buffer" : 0,
            "byteLength" : 13824,
            "byteOffset" : 73116
        },
        {
            "buffer" : 0,
            "byteLength" : 6528,
            "byteOffset" : 86940
        },
        {
            "buffer" : 0,
            "byteLength" : 6528,
            "byteOffset" : 93468
        },
        {
            "buffer" : 0,
            "byteLength" : 5328,
            "byteOffset" : 99996
        },
        {
            "buffer" : 0,
            "byteLength" : 3324,
            "byteOffset" : 105324
        },
        {
            "buffer" : 0,
            "byteLength" : 3324,
            "byteOffset" : 108648
        },
        {
            "buffer" : 0,
            "byteLength" : 834,
            "byteOffset" : 111972
        },
        {
            "buffer" : 0,
            "byteLength" : 2544,
            "byteOffset" : 112808
        },
        {
            "buffer" : 0,
            "byteLength" : 2544,
            "byteOffset" : 115352
        },
        {
            "buffer" : 0,
            "byteLength" : 624,
            "byteOffset" : 117896
        }
    ],
    "buffers" : [
        {
            "byteLength" : 118520,
            "uri" : "data:application/octet-stream;base64,"
        }
    ]
}
