{
    "asset" : {
        "generator" : "Khronos glTF Blender I/O v1.7.33",
        "version" : "2.0"
    },
    "scene" : 0,
    "scenes" : [
        {
            "name" : "Scene",
            "nodes" : [
                0
            ]
        }
    ],
    "nodes" : [
        {
            "mesh" : 0,
            "name" : "Barrier_Large",
            "scale" : [
                0.7378829717636108,
                0.3647299110889435,
                0.3647299110889435
            ]
        }
    ],
    "materials" : [
        {
            "doubleSided" : true,
            "name" : "Grey",
            "pbrMetallicRoughness" : {
                "baseColorFactor" : [
                    0.2746773064136505,
                    0.28744083642959595,
                    0.35153263807296753,
                    1
                ],
                "metallicFactor" : 0,
                "roughnessFactor" : 0.5
            }
        },
        {
            "doubleSided" : true,
            "name" : "DarkGrey",
            "pbrMetallicRoughness" : {
                "baseColorFactor" : [
                    0.0666259378194809,
                    0.0666259378194809,
                    0.0666259378194809,
                    1
                ],
                "metallicFactor" : 0,
                "roughnessFactor" : 0.5
            }
        },
        {
            "doubleSided" : true,
            "name" : "Yellow",
            "pbrMetallicRoughness" : {
                "baseColorFactor" : [
                    0.8006506562232971,
                    0.5081160664558411,
                    0.07728475332260132,
                    1
                ],
                "metallicFactor" : 0,
                "roughnessFactor" : 0.5
            }
        },
        {
            "doubleSided" : true,
            "name" : "White",
            "pbrMetallicRoughness" : {
                "baseColorFactor" : [
                    0.6421434283256531,
                    0.6738417744636536,
                    0.5752183794975281,
                    1
                ],
                "metallicFactor" : 0,
                "roughnessFactor" : 0.5
            }
        },
        {
            "alphaMode" : "BLEND",
            "doubleSided" : true,
            "name" : "Texture_Fence",
            "pbrMetallicRoughness" : {
                "baseColorTexture" : {
                    "index" : 0
                },
                "metallicFactor" : 0,
                "roughnessFactor" : 0.5
            }
        }
    ],
    "meshes" : [
        {
            "name" : "Cube.029",
            "primitives" : [
                {
                    "attributes" : {
                        "POSITION" : 0,
                        "NORMAL" : 1,
                        "TEXCOORD_0" : 2
                    },
                    "indices" : 3,
                    "material" : 0
                },
                {
                    "attributes" : {
                        "POSITION" : 4,
                        "NORMAL" : 5,
                        "TEXCOORD_0" : 6
                    },
                    "indices" : 7,
                    "material" : 1
                },
                {
                    "attributes" : {
                        "POSITION" : 8,
                        "NORMAL" : 9,
                        "TEXCOORD_0" : 10
                    },
                    "indices" : 11,
                    "material" : 2
                },
                {
                    "attributes" : {
                        "POSITION" : 12,
                        "NORMAL" : 13,
                        "TEXCOORD_0" : 14
                    },
                    "indices" : 15,
                    "material" : 3
                },
                {
                    "attributes" : {
                        "POSITION" : 16,
                        "NORMAL" : 17,
                        "TEXCOORD_0" : 18
                    },
                    "indices" : 19,
                    "material" : 4
                }
            ]
        }
    ],
    "textures" : [
        {
            "sampler" : 0,
            "source" : 0
        }
    ],
    "images" : [
        {
            "bufferView" : 20,
            "mimeType" : "image/png",
            "name" : "Fence.png"
        }
    ],
    "accessors" : [
        {
            "bufferView" : 0,
            "componentType" : 5126,
            "count" : 918,
            "max" : [
                2.569777011871338,
                8.71819019317627,
                0.8994712233543396
            ],
            "min" : [
                -2.5875797271728516,
                -0.009594440460205078,
                -0.9282932877540588
            ],
            "type" : "VEC3"
        },
        {
            "bufferView" : 1,
            "componentType" : 5126,
            "count" : 918,
            "type" : "VEC3"
        },
        {
            "bufferView" : 2,
            "componentType" : 5126,
            "count" : 918,
            "type" : "VEC2"
        },
        {
            "bufferView" : 3,
            "componentType" : 5123,
            "count" : 1758,
            "type" : "SCALAR"
        },
        {
            "bufferView" : 4,
            "componentType" : 5126,
            "count" : 32,
            "max" : [
                2.4606809616088867,
                1.4894245862960815,
                0.7788197994232178
            ],
            "min" : [
                -2.4745242595672607,
                0.8503822088241577,
                0.32233235239982605
            ],
            "type" : "VEC3"
        },
        {
            "bufferView" : 5,
            "componentType" : 5126,
            "count" : 32,
            "type" : "VEC3"
        },
        {
            "bufferView" : 6,
            "componentType" : 5126,
            "count" : 32,
            "type" : "VEC2"
        },
        {
            "bufferView" : 7,
            "componentType" : 5123,
            "count" : 48,
            "type" : "SCALAR"
        },
        {
            "bufferView" : 8,
            "componentType" : 5126,
            "count" : 36,
            "max" : [
                2.4606809616088867,
                1.4894245862960815,
                0.7788197994232178
            ],
            "min" : [
                -2.4783544540405273,
                0.8503822088241577,
                0.3099779188632965
            ],
            "type" : "VEC3"
        },
        {
            "bufferView" : 9,
            "componentType" : 5126,
            "count" : 36,
            "type" : "VEC3"
        },
        {
            "bufferView" : 10,
            "componentType" : 5126,
            "count" : 36,
            "type" : "VEC2"
        },
        {
            "bufferView" : 11,
            "componentType" : 5123,
            "count" : 48,
            "type" : "SCALAR"
        },
        {
            "bufferView" : 12,
            "componentType" : 5126,
            "count" : 10,
            "max" : [
                -0.6869082450866699,
                0.7553942203521729,
                0.8691505193710327
            ],
            "min" : [
                -1.3164277076721191,
                0.5798866152763367,
                0.786902129650116
            ],
            "type" : "VEC3"
        },
        {
            "bufferView" : 13,
            "componentType" : 5126,
            "count" : 10,
            "type" : "VEC3"
        },
        {
            "bufferView" : 14,
            "componentType" : 5126,
            "count" : 10,
            "type" : "VEC2"
        },
        {
            "bufferView" : 15,
            "componentType" : 5123,
            "count" : 12,
            "type" : "SCALAR"
        },
        {
            "bufferView" : 16,
            "componentType" : 5126,
            "count" : 4,
            "max" : [
                2.322160243988037,
                7.167766571044922,
                -0.39882516860961914
            ],
            "min" : [
                -2.3221607208251953,
                1.375140905380249,
                -0.39882537722587585
            ],
            "type" : "VEC3"
        },
        {
            "bufferView" : 17,
            "componentType" : 5126,
            "count" : 4,
            "type" : "VEC3"
        },
        {
            "bufferView" : 18,
            "componentType" : 5126,
            "count" : 4,
            "type" : "VEC2"
        },
        {
            "bufferView" : 19,
            "componentType" : 5123,
            "count" : 6,
            "type" : "SCALAR"
        }
    ],
    "bufferViews" : [
        {
            "buffer" : 0,
            "byteLength" : 11016,
            "byteOffset" : 0
        },
        {
            "buffer" : 0,
            "byteLength" : 11016,
            "byteOffset" : 11016
        },
        {
            "buffer" : 0,
            "byteLength" : 7344,
            "byteOffset" : 22032
        },
        {
            "buffer" : 0,
            "byteLength" : 3516,
            "byteOffset" : 29376
        },
        {
            "buffer" : 0,
            "byteLength" : 384,
            "byteOffset" : 32892
        },
        {
            "buffer" : 0,
            "byteLength" : 384,
            "byteOffset" : 33276
        },
        {
            "buffer" : 0,
            "byteLength" : 256,
            "byteOffset" : 33660
        },
        {
            "buffer" : 0,
            "byteLength" : 96,
            "byteOffset" : 33916
        },
        {
            "buffer" : 0,
            "byteLength" : 432,
            "byteOffset" : 34012
        },
        {
            "buffer" : 0,
            "byteLength" : 432,
            "byteOffset" : 34444
        },
        {
            "buffer" : 0,
            "byteLength" : 288,
            "byteOffset" : 34876
        },
        {
            "buffer" : 0,
            "byteLength" : 96,
            "byteOffset" : 35164
        },
        {
            "buffer" : 0,
            "byteLength" : 120,
            "byteOffset" : 35260
        },
        {
            "buffer" : 0,
            "byteLength" : 120,
            "byteOffset" : 35380
        },
        {
            "buffer" : 0,
            "byteLength" : 80,
            "byteOffset" : 35500
        },
        {
            "buffer" : 0,
            "byteLength" : 24,
            "byteOffset" : 35580
        },
        {
            "buffer" : 0,
            "byteLength" : 48,
            "byteOffset" : 35604
        },
        {
            "buffer" : 0,
            "byteLength" : 48,
            "byteOffset" : 35652
        },
        {
            "buffer" : 0,
            "byteLength" : 32,
            "byteOffset" : 35700
        },
        {
            "buffer" : 0,
            "byteLength" : 12,
            "byteOffset" : 35732
        },
        {
            "buffer" : 0,
            "byteLength" : 76597,
            "byteOffset" : 35744
        }
    ],
    "samplers" : [
        {
            "magFilter" : 9729,
            "minFilter" : 9987
        }
    ],
    "buffers" : [
        {
            "byteLength" : 112344,
            "uri" : "data:application/octet-stream;base64,"
        }
    ]
}
