{
    "asset" : {
        "generator" : "Khronos glTF Blender I/O v1.7.33",
        "version" : "2.0"
    },
    "scene" : 0,
    "scenes" : [
        {
            "name" : "Scene",
            "nodes" : [
                0
            ]
        }
    ],
    "nodes" : [
        {
            "mesh" : 0,
            "name" : "Barrier_Single",
            "scale" : [
                0.7378829717636108,
                0.3647299110889435,
                0.3647299110889435
            ]
        }
    ],
    "materials" : [
        {
            "doubleSided" : true,
            "name" : "Grey",
            "pbrMetallicRoughness" : {
                "baseColorFactor" : [
                    0.2746773064136505,
                    0.28744083642959595,
                    0.35153263807296753,
                    1
                ],
                "metallicFactor" : 0,
                "roughnessFactor" : 0.5
            }
        },
        {
            "doubleSided" : true,
            "name" : "DarkGrey",
            "pbrMetallicRoughness" : {
                "baseColorFactor" : [
                    0.0666259378194809,
                    0.0666259378194809,
                    0.0666259378194809,
                    1
                ],
                "metallicFactor" : 0,
                "roughnessFactor" : 0.5
            }
        },
        {
            "doubleSided" : true,
            "name" : "Yellow",
            "pbrMetallicRoughness" : {
                "baseColorFactor" : [
                    0.8006506562232971,
                    0.5081160664558411,
                    0.07728475332260132,
                    1
                ],
                "metallicFactor" : 0,
                "roughnessFactor" : 0.5
            }
        },
        {
            "doubleSided" : true,
            "name" : "White",
            "pbrMetallicRoughness" : {
                "baseColorFactor" : [
                    0.6421434283256531,
                    0.6738417744636536,
                    0.5752183794975281,
                    1
                ],
                "metallicFactor" : 0,
                "roughnessFactor" : 0.5
            }
        }
    ],
    "meshes" : [
        {
            "name" : "Cube.046",
            "primitives" : [
                {
                    "attributes" : {
                        "POSITION" : 0,
                        "NORMAL" : 1
                    },
                    "indices" : 2,
                    "material" : 0
                },
                {
                    "attributes" : {
                        "POSITION" : 3,
                        "NORMAL" : 4
                    },
                    "indices" : 5,
                    "material" : 1
                },
                {
                    "attributes" : {
                        "POSITION" : 6,
                        "NORMAL" : 7
                    },
                    "indices" : 8,
                    "material" : 2
                },
                {
                    "attributes" : {
                        "POSITION" : 9,
                        "NORMAL" : 10
                    },
                    "indices" : 11,
                    "material" : 3
                }
            ]
        }
    ],
    "accessors" : [
        {
            "bufferView" : 0,
            "componentType" : 5126,
            "count" : 189,
            "max" : [
                1.294797420501709,
                1.7124648094177246,
                0.8994712233543396
            ],
            "min" : [
                -1.266913890838623,
                -0.009594440460205078,
                -0.9015833139419556
            ],
            "type" : "VEC3"
        },
        {
            "bufferView" : 1,
            "componentType" : 5126,
            "count" : 189,
            "type" : "VEC3"
        },
        {
            "bufferView" : 2,
            "componentType" : 5123,
            "count" : 612,
            "type" : "SCALAR"
        },
        {
            "bufferView" : 3,
            "componentType" : 5126,
            "count" : 16,
            "max" : [
                1.1688332557678223,
                1.4894245862960815,
                0.7788197994232178
            ],
            "min" : [
                -1.1538584232330322,
                0.8503822088241577,
                0.337138295173645
            ],
            "type" : "VEC3"
        },
        {
            "bufferView" : 4,
            "componentType" : 5126,
            "count" : 16,
            "type" : "VEC3"
        },
        {
            "bufferView" : 5,
            "componentType" : 5123,
            "count" : 24,
            "type" : "SCALAR"
        },
        {
            "bufferView" : 6,
            "componentType" : 5126,
            "count" : 18,
            "max" : [
                1.1726633310317993,
                1.4894245862960815,
                0.7788197994232178
            ],
            "min" : [
                -1.1576886177062988,
                0.8503822088241577,
                0.337138295173645
            ],
            "type" : "VEC3"
        },
        {
            "bufferView" : 7,
            "componentType" : 5126,
            "count" : 18,
            "type" : "VEC3"
        },
        {
            "bufferView" : 8,
            "componentType" : 5123,
            "count" : 24,
            "type" : "SCALAR"
        },
        {
            "bufferView" : 9,
            "componentType" : 5126,
            "count" : 24,
            "max" : [
                1.2818912267684937,
                1.7124648094177246,
                0.8691505193710327
            ],
            "min" : [
                -1.1525216102600098,
                0.5798866152763367,
                -0.21333956718444824
            ],
            "type" : "VEC3"
        },
        {
            "bufferView" : 10,
            "componentType" : 5126,
            "count" : 24,
            "type" : "VEC3"
        },
        {
            "bufferView" : 11,
            "componentType" : 5123,
            "count" : 36,
            "type" : "SCALAR"
        }
    ],
    "bufferViews" : [
        {
            "buffer" : 0,
            "byteLength" : 2268,
            "byteOffset" : 0
        },
        {
            "buffer" : 0,
            "byteLength" : 2268,
            "byteOffset" : 2268
        },
        {
            "buffer" : 0,
            "byteLength" : 1224,
            "byteOffset" : 4536
        },
        {
            "buffer" : 0,
            "byteLength" : 192,
            "byteOffset" : 5760
        },
        {
            "buffer" : 0,
            "byteLength" : 192,
            "byteOffset" : 5952
        },
        {
            "buffer" : 0,
            "byteLength" : 48,
            "byteOffset" : 6144
        },
        {
            "buffer" : 0,
            "byteLength" : 216,
            "byteOffset" : 6192
        },
        {
            "buffer" : 0,
            "byteLength" : 216,
            "byteOffset" : 6408
        },
        {
            "buffer" : 0,
            "byteLength" : 48,
            "byteOffset" : 6624
        },
        {
            "buffer" : 0,
            "byteLength" : 288,
            "byteOffset" : 6672
        },
        {
            "buffer" : 0,
            "byteLength" : 288,
            "byteOffset" : 6960
        },
        {
            "buffer" : 0,
            "byteLength" : 72,
            "byteOffset" : 7248
        }
    ],
    "buffers" : [
        {
            "byteLength" : 7320,
            "uri" : "data:application/octet-stream;base64,"
        }
    ]
}
