{
    "asset" : {
        "generator" : "Khronos glTF Blender I/O v1.7.33",
        "version" : "2.0"
    },
    "scene" : 0,
    "scenes" : [
        {
            "name" : "Scene",
            "nodes" : [
                0
            ]
        }
    ],
    "nodes" : [
        {
            "mesh" : 0,
            "name" : "BearTrap_Closed",
            "scale" : [
                0.5860000252723694,
                0.5860000252723694,
                0.5860000252723694
            ]
        }
    ],
    "materials" : [
        {
            "doubleSided" : true,
            "name" : "Grey",
            "pbrMetallicRoughness" : {
                "baseColorFactor" : [
                    0.2746773064136505,
                    0.28744083642959595,
                    0.35153263807296753,
                    1
                ],
                "metallicFactor" : 0,
                "roughnessFactor" : 0.5
            }
        }
    ],
    "meshes" : [
        {
            "name" : "Cube.019",
            "primitives" : [
                {
                    "attributes" : {
                        "POSITION" : 0,
                        "NORMAL" : 1
                    },
                    "indices" : 2,
                    "material" : 0
                }
            ]
        }
    ],
    "accessors" : [
        {
            "bufferView" : 0,
            "componentType" : 5126,
            "count" : 818,
            "max" : [
                0.7039259076118469,
                0.8242795467376709,
                1.0349650382995605
            ],
            "min" : [
                -0.7039259076118469,
                -0.02332724817097187,
                -0.7369832992553711
            ],
            "type" : "VEC3"
        },
        {
            "bufferView" : 1,
            "componentType" : 5126,
            "count" : 818,
            "type" : "VEC3"
        },
        {
            "bufferView" : 2,
            "componentType" : 5123,
            "count" : 1824,
            "type" : "SCALAR"
        }
    ],
    "bufferViews" : [
        {
            "buffer" : 0,
            "byteLength" : 9816,
            "byteOffset" : 0
        },
        {
            "buffer" : 0,
            "byteLength" : 9816,
            "byteOffset" : 9816
        },
        {
            "buffer" : 0,
            "byteLength" : 3648,
            "byteOffset" : 19632
        }
    ],
    "buffers" : [
        {
            "byteLength" : 23280,
            "uri" : "data:application/octet-stream;base64,"
        }
    ]
}
