{
    "asset" : {
        "generator" : "Khronos glTF Blender I/O v1.7.33",
        "version" : "2.0"
    },
    "scene" : 0,
    "scenes" : [
        {
            "name" : "Scene",
            "nodes" : [
                0
            ]
        }
    ],
    "nodes" : [
        {
            "mesh" : 0,
            "name" : "CardboardBoxes_3",
            "scale" : [
                0.36327341198921204,
                0.36327341198921204,
                0.36327341198921204
            ]
        }
    ],
    "materials" : [
        {
            "doubleSided" : true,
            "name" : "Cardboard",
            "pbrMetallicRoughness" : {
                "baseColorFactor" : [
                    0.4109334349632263,
                    0.2009478062391281,
                    0.08130298554897308,
                    1
                ],
                "metallicFactor" : 0,
                "roughnessFactor" : 0.5
            }
        },
        {
            "doubleSided" : true,
            "name" : "Tape",
            "pbrMetallicRoughness" : {
                "baseColorFactor" : [
                    0.4109334349632263,
                    0.37330713868141174,
                    0.2728308141231537,
                    1
                ],
                "metallicFactor" : 0,
                "roughnessFactor" : 0.5
            }
        }
    ],
    "meshes" : [
        {
            "name" : "Cube.063",
            "primitives" : [
                {
                    "attributes" : {
                        "POSITION" : 0,
                        "NORMAL" : 1
                    },
                    "indices" : 2,
                    "material" : 0
                },
                {
                    "attributes" : {
                        "POSITION" : 3,
                        "NORMAL" : 4
                    },
                    "indices" : 5,
                    "material" : 1
                }
            ]
        }
    ],
    "accessors" : [
        {
            "bufferView" : 0,
            "componentType" : 5126,
            "count" : 688,
            "max" : [
                1.851482629776001,
                6.207189083099365,
                1.6710487604141235
            ],
            "min" : [
                -1.603874921798706,
                0,
                -1.6710487604141235
            ],
            "type" : "VEC3"
        },
        {
            "bufferView" : 1,
            "componentType" : 5126,
            "count" : 688,
            "type" : "VEC3"
        },
        {
            "bufferView" : 2,
            "componentType" : 5123,
            "count" : 1080,
            "type" : "SCALAR"
        },
        {
            "bufferView" : 3,
            "componentType" : 5126,
            "count" : 144,
            "max" : [
                1.8278523683547974,
                6.207189083099365,
                1.4614512920379639
            ],
            "min" : [
                -1.3932753801345825,
                0.21059921383857727,
                -1.2175133228302002
            ],
            "type" : "VEC3"
        },
        {
            "bufferView" : 4,
            "componentType" : 5126,
            "count" : 144,
            "type" : "VEC3"
        },
        {
            "bufferView" : 5,
            "componentType" : 5123,
            "count" : 216,
            "type" : "SCALAR"
        }
    ],
    "bufferViews" : [
        {
            "buffer" : 0,
            "byteLength" : 8256,
            "byteOffset" : 0
        },
        {
            "buffer" : 0,
            "byteLength" : 8256,
            "byteOffset" : 8256
        },
        {
            "buffer" : 0,
            "byteLength" : 2160,
            "byteOffset" : 16512
        },
        {
            "buffer" : 0,
            "byteLength" : 1728,
            "byteOffset" : 18672
        },
        {
            "buffer" : 0,
            "byteLength" : 1728,
            "byteOffset" : 20400
        },
        {
            "buffer" : 0,
            "byteLength" : 432,
            "byteOffset" : 22128
        }
    ],
    "buffers" : [
        {
            "byteLength" : 22560,
            "uri" : "data:application/octet-stream;base64,"
        }
    ]
}
