{
    "asset" : {
        "generator" : "Khronos glTF Blender I/O v1.7.33",
        "version" : "2.0"
    },
    "scene" : 0,
    "scenes" : [
        {
            "name" : "Scene",
            "nodes" : [
                0
            ]
        }
    ],
    "nodes" : [
        {
            "mesh" : 0,
            "name" : "Container_Small",
            "scale" : [
                0.5860000252723694,
                0.5860000252723694,
                0.5860000252723694
            ]
        }
    ],
    "materials" : [
        {
            "doubleSided" : true,
            "name" : "Blue",
            "pbrMetallicRoughness" : {
                "baseColorFactor" : [
                    0.05386359244585037,
                    0.0880281999707222,
                    0.3263714909553528,
                    1
                ],
                "metallicFactor" : 0,
                "roughnessFactor" : 0.5
            }
        },
        {
            "doubleSided" : true,
            "name" : "Grey",
            "pbrMetallicRoughness" : {
                "baseColorFactor" : [
                    0.2746773064136505,
                    0.28744083642959595,
                    0.35153263807296753,
                    1
                ],
                "metallicFactor" : 0,
                "roughnessFactor" : 0.5
            }
        }
    ],
    "meshes" : [
        {
            "name" : "Cube.269",
            "primitives" : [
                {
                    "attributes" : {
                        "POSITION" : 0,
                        "NORMAL" : 1
                    },
                    "indices" : 2,
                    "material" : 0
                },
                {
                    "attributes" : {
                        "POSITION" : 3,
                        "NORMAL" : 4
                    },
                    "indices" : 5,
                    "material" : 1
                }
            ]
        }
    ],
    "accessors" : [
        {
            "bufferView" : 0,
            "componentType" : 5126,
            "count" : 872,
            "max" : [
                1.8375608921051025,
                3.646440029144287,
                1.758423089981079
            ],
            "min" : [
                -1.8375608921051025,
                0.12274539470672607,
                -1.758423089981079
            ],
            "type" : "VEC3"
        },
        {
            "bufferView" : 1,
            "componentType" : 5126,
            "count" : 872,
            "type" : "VEC3"
        },
        {
            "bufferView" : 2,
            "componentType" : 5123,
            "count" : 1728,
            "type" : "SCALAR"
        },
        {
            "bufferView" : 3,
            "componentType" : 5126,
            "count" : 548,
            "max" : [
                1.8724181652069092,
                3.702620506286621,
                1.7833144664764404
            ],
            "min" : [
                -1.8724181652069092,
                0.06656515598297119,
                -1.7833144664764404
            ],
            "type" : "VEC3"
        },
        {
            "bufferView" : 4,
            "componentType" : 5126,
            "count" : 548,
            "type" : "VEC3"
        },
        {
            "bufferView" : 5,
            "componentType" : 5123,
            "count" : 1032,
            "type" : "SCALAR"
        }
    ],
    "bufferViews" : [
        {
            "buffer" : 0,
            "byteLength" : 10464,
            "byteOffset" : 0
        },
        {
            "buffer" : 0,
            "byteLength" : 10464,
            "byteOffset" : 10464
        },
        {
            "buffer" : 0,
            "byteLength" : 3456,
            "byteOffset" : 20928
        },
        {
            "buffer" : 0,
            "byteLength" : 6576,
            "byteOffset" : 24384
        },
        {
            "buffer" : 0,
            "byteLength" : 6576,
            "byteOffset" : 30960
        },
        {
            "buffer" : 0,
            "byteLength" : 2064,
            "byteOffset" : 37536
        }
    ],
    "buffers" : [
        {
            "byteLength" : 39600,
            "uri" : "data:application/octet-stream;base64,"
        }
    ]
}
