{
    "asset" : {
        "generator" : "Khronos glTF Blender I/O v1.7.33",
        "version" : "2.0"
    },
    "scene" : 0,
    "scenes" : [
        {
            "name" : "Scene",
            "nodes" : [
                0
            ]
        }
    ],
    "nodes" : [
        {
            "mesh" : 0,
            "name" : "Debris_BrokenCar",
            "scale" : [
                1.4928282499313354,
                1.4928282499313354,
                1.4928282499313354
            ]
        }
    ],
    "materials" : [
        {
            "doubleSided" : true,
            "name" : "Rust",
            "pbrMetallicRoughness" : {
                "baseColorFactor" : [
                    0.14238348603248596,
                    0.08724373579025269,
                    0.044256653636693954,
                    1
                ],
                "metallicFactor" : 0,
                "roughnessFactor" : 0.5
            }
        },
        {
            "doubleSided" : true,
            "name" : "Black",
            "pbrMetallicRoughness" : {
                "baseColorFactor" : [
                    0.02364896982908249,
                    0.02364896982908249,
                    0.02364896982908249,
                    1
                ],
                "metallicFactor" : 0,
                "roughnessFactor" : 0.5
            }
        },
        {
            "doubleSided" : true,
            "name" : "Grey",
            "pbrMetallicRoughness" : {
                "baseColorFactor" : [
                    0.2746773064136505,
                    0.28744083642959595,
                    0.35153263807296753,
                    1
                ],
                "metallicFactor" : 0,
                "roughnessFactor" : 0.5
            }
        },
        {
            "doubleSided" : true,
            "name" : "Rust2",
            "pbrMetallicRoughness" : {
                "baseColorFactor" : [
                    0.19017364084720612,
                    0.14825934171676636,
                    0.10094944387674332,
                    1
                ],
                "metallicFactor" : 0,
                "roughnessFactor" : 0.5
            }
        }
    ],
    "meshes" : [
        {
            "name" : "Cube.034",
            "primitives" : [
                {
                    "attributes" : {
                        "POSITION" : 0,
                        "NORMAL" : 1
                    },
                    "indices" : 2,
                    "material" : 0
                },
                {
                    "attributes" : {
                        "POSITION" : 3,
                        "NORMAL" : 4
                    },
                    "indices" : 5,
                    "material" : 1
                },
                {
                    "attributes" : {
                        "POSITION" : 6,
                        "NORMAL" : 7
                    },
                    "indices" : 8,
                    "material" : 2
                },
                {
                    "attributes" : {
                        "POSITION" : 9,
                        "NORMAL" : 10
                    },
                    "indices" : 11,
                    "material" : 3
                }
            ]
        }
    ],
    "accessors" : [
        {
            "bufferView" : 0,
            "componentType" : 5126,
            "count" : 535,
            "max" : [
                0.8461636900901794,
                1.1134892702102661,
                1.9751458168029785
            ],
            "min" : [
                -0.8461636900901794,
                0.15374162793159485,
                -1.7049676179885864
            ],
            "type" : "VEC3"
        },
        {
            "bufferView" : 1,
            "componentType" : 5126,
            "count" : 535,
            "type" : "VEC3"
        },
        {
            "bufferView" : 2,
            "componentType" : 5123,
            "count" : 1668,
            "type" : "SCALAR"
        },
        {
            "bufferView" : 3,
            "componentType" : 5126,
            "count" : 758,
            "max" : [
                0.8846595287322998,
                0.5384249687194824,
                1.9751458168029785
            ],
            "min" : [
                -0.8846595287322998,
                -0.06566795706748962,
                -1.1871596574783325
            ],
            "type" : "VEC3"
        },
        {
            "bufferView" : 4,
            "componentType" : 5126,
            "count" : 758,
            "type" : "VEC3"
        },
        {
            "bufferView" : 5,
            "componentType" : 5123,
            "count" : 1692,
            "type" : "SCALAR"
        },
        {
            "bufferView" : 6,
            "componentType" : 5126,
            "count" : 1564,
            "max" : [
                0.8458993434906006,
                1.1134892702102661,
                1.9557888507843018
            ],
            "min" : [
                -0.8458993434906006,
                0.023106783628463745,
                -1.671707272529602
            ],
            "type" : "VEC3"
        },
        {
            "bufferView" : 7,
            "componentType" : 5126,
            "count" : 1564,
            "type" : "VEC3"
        },
        {
            "bufferView" : 8,
            "componentType" : 5123,
            "count" : 3654,
            "type" : "SCALAR"
        },
        {
            "bufferView" : 9,
            "componentType" : 5126,
            "count" : 360,
            "max" : [
                0.8325001001358032,
                1.0927138328552246,
                1.8775498867034912
            ],
            "min" : [
                -0.8325001001358032,
                0.15374165773391724,
                -1.626267910003662
            ],
            "type" : "VEC3"
        },
        {
            "bufferView" : 10,
            "componentType" : 5126,
            "count" : 360,
            "type" : "VEC3"
        },
        {
            "bufferView" : 11,
            "componentType" : 5123,
            "count" : 858,
            "type" : "SCALAR"
        }
    ],
    "bufferViews" : [
        {
            "buffer" : 0,
            "byteLength" : 6420,
            "byteOffset" : 0
        },
        {
            "buffer" : 0,
            "byteLength" : 6420,
            "byteOffset" : 6420
        },
        {
            "buffer" : 0,
            "byteLength" : 3336,
            "byteOffset" : 12840
        },
        {
            "buffer" : 0,
            "byteLength" : 9096,
            "byteOffset" : 16176
        },
        {
            "buffer" : 0,
            "byteLength" : 9096,
            "byteOffset" : 25272
        },
        {
            "buffer" : 0,
            "byteLength" : 3384,
            "byteOffset" : 34368
        },
        {
            "buffer" : 0,
            "byteLength" : 18768,
            "byteOffset" : 37752
        },
        {
            "buffer" : 0,
            "byteLength" : 18768,
            "byteOffset" : 56520
        },
        {
            "buffer" : 0,
            "byteLength" : 7308,
            "byteOffset" : 75288
        },
        {
            "buffer" : 0,
            "byteLength" : 4320,
            "byteOffset" : 82596
        },
        {
            "buffer" : 0,
            "byteLength" : 4320,
            "byteOffset" : 86916
        },
        {
            "buffer" : 0,
            "byteLength" : 1716,
            "byteOffset" : 91236
        }
    ],
    "buffers" : [
        {
            "byteLength" : 92952,
            "uri" : "data:application/octet-stream;base64,"
        }
    ]
}
