{
    "asset" : {
        "generator" : "Khronos glTF Blender I/O v1.7.33",
        "version" : "2.0"
    },
    "scene" : 0,
    "scenes" : [
        {
            "name" : "Scene",
            "nodes" : [
                0
            ]
        }
    ],
    "nodes" : [
        {
            "mesh" : 0,
            "name" : "ExplodingBarrel_Spilled",
            "rotation" : [
                0,
                0,
                -0.7051130533218384,
                0.7090948820114136
            ],
            "scale" : [
                0.36450982093811035,
                0.36450982093811035,
                0.36450979113578796
            ]
        }
    ],
    "materials" : [
        {
            "doubleSided" : true,
            "name" : "Red",
            "pbrMetallicRoughness" : {
                "baseColorFactor" : [
                    0.3263714909553528,
                    0.047813333570957184,
                    0.044884875416755676,
                    1
                ],
                "metallicFactor" : 0,
                "roughnessFactor" : 0.5
            }
        },
        {
            "doubleSided" : true,
            "name" : "Grey",
            "pbrMetallicRoughness" : {
                "baseColorFactor" : [
                    0.2746773064136505,
                    0.28744083642959595,
                    0.35153263807296753,
                    1
                ],
                "metallicFactor" : 0,
                "roughnessFactor" : 0.5
            }
        },
        {
            "doubleSided" : true,
            "name" : "Oil",
            "pbrMetallicRoughness" : {
                "baseColorFactor" : [
                    0.17335163056850433,
                    0.0937139242887497,
                    0.04791107773780823,
                    1
                ],
                "metallicFactor" : 0,
                "roughnessFactor" : 0.5
            }
        },
        {
            "doubleSided" : true,
            "name" : "White",
            "pbrMetallicRoughness" : {
                "baseColorFactor" : [
                    0.6421434283256531,
                    0.6738417744636536,
                    0.5752183794975281,
                    1
                ],
                "metallicFactor" : 0,
                "roughnessFactor" : 0.5
            }
        }
    ],
    "meshes" : [
        {
            "name" : "Cylinder.005",
            "primitives" : [
                {
                    "attributes" : {
                        "POSITION" : 0,
                        "NORMAL" : 1
                    },
                    "indices" : 2,
                    "material" : 0
                },
                {
                    "attributes" : {
                        "POSITION" : 3,
                        "NORMAL" : 4
                    },
                    "indices" : 5,
                    "material" : 1
                },
                {
                    "attributes" : {
                        "POSITION" : 6,
                        "NORMAL" : 7
                    },
                    "indices" : 8,
                    "material" : 2
                },
                {
                    "attributes" : {
                        "POSITION" : 9,
                        "NORMAL" : 10
                    },
                    "indices" : 11,
                    "material" : 3
                }
            ]
        }
    ],
    "accessors" : [
        {
            "bufferView" : 0,
            "componentType" : 5126,
            "count" : 112,
            "max" : [
                0.05210906267166138,
                -0.4768807888031006,
                0.9999995231628418
            ],
            "min" : [
                -1.9615757465362549,
                -3.230039119720459,
                -1.0000005960464478
            ],
            "type" : "VEC3"
        },
        {
            "bufferView" : 1,
            "componentType" : 5126,
            "count" : 112,
            "type" : "VEC3"
        },
        {
            "bufferView" : 2,
            "componentType" : 5123,
            "count" : 276,
            "type" : "SCALAR"
        },
        {
            "bufferView" : 3,
            "componentType" : 5126,
            "count" : 336,
            "max" : [
                0.12991386651992798,
                -0.47370994091033936,
                1.0767675638198853
            ],
            "min" : [
                -2.0393803119659424,
                -3.2903671264648438,
                -1.0767685174942017
            ],
            "type" : "VEC3"
        },
        {
            "bufferView" : 4,
            "componentType" : 5126,
            "count" : 336,
            "type" : "VEC3"
        },
        {
            "bufferView" : 5,
            "componentType" : 5123,
            "count" : 1008,
            "type" : "SCALAR"
        },
        {
            "bufferView" : 6,
            "componentType" : 5126,
            "count" : 122,
            "max" : [
                0.02456742525100708,
                3.6274538040161133,
                1.2146332263946533
            ],
            "min" : [
                -0.17176273465156555,
                -0.4219369888305664,
                -2.6257431507110596
            ],
            "type" : "VEC3"
        },
        {
            "bufferView" : 7,
            "componentType" : 5126,
            "count" : 122,
            "type" : "VEC3"
        },
        {
            "bufferView" : 8,
            "componentType" : 5123,
            "count" : 624,
            "type" : "SCALAR"
        },
        {
            "bufferView" : 9,
            "componentType" : 5126,
            "count" : 58,
            "max" : [
                0.04885798692703247,
                -1.2359330654144287,
                0.9999995231628418
            ],
            "min" : [
                -1.9372453689575195,
                -2.5282628536224365,
                -1.0000005960464478
            ],
            "type" : "VEC3"
        },
        {
            "bufferView" : 10,
            "componentType" : 5126,
            "count" : 58,
            "type" : "VEC3"
        },
        {
            "bufferView" : 11,
            "componentType" : 5123,
            "count" : 264,
            "type" : "SCALAR"
        }
    ],
    "bufferViews" : [
        {
            "buffer" : 0,
            "byteLength" : 1344,
            "byteOffset" : 0
        },
        {
            "buffer" : 0,
            "byteLength" : 1344,
            "byteOffset" : 1344
        },
        {
            "buffer" : 0,
            "byteLength" : 552,
            "byteOffset" : 2688
        },
        {
            "buffer" : 0,
            "byteLength" : 4032,
            "byteOffset" : 3240
        },
        {
            "buffer" : 0,
            "byteLength" : 4032,
            "byteOffset" : 7272
        },
        {
            "buffer" : 0,
            "byteLength" : 2016,
            "byteOffset" : 11304
        },
        {
            "buffer" : 0,
            "byteLength" : 1464,
            "byteOffset" : 13320
        },
        {
            "buffer" : 0,
            "byteLength" : 1464,
            "byteOffset" : 14784
        },
        {
            "buffer" : 0,
            "byteLength" : 1248,
            "byteOffset" : 16248
        },
        {
            "buffer" : 0,
            "byteLength" : 696,
            "byteOffset" : 17496
        },
        {
            "buffer" : 0,
            "byteLength" : 696,
            "byteOffset" : 18192
        },
        {
            "buffer" : 0,
            "byteLength" : 528,
            "byteOffset" : 18888
        }
    ],
    "buffers" : [
        {
            "byteLength" : 19416,
            "uri" : "data:application/octet-stream;base64,"
        }
    ]
}
