{
    "asset" : {
        "generator" : "Khronos glTF Blender I/O v1.7.33",
        "version" : "2.0"
    },
    "scene" : 0,
    "scenes" : [
        {
            "name" : "Scene",
            "nodes" : [
                0
            ]
        }
    ],
    "nodes" : [
        {
            "mesh" : 0,
            "name" : "GasCan",
            "scale" : [
                0.844116747379303,
                0.844116747379303,
                0.844116747379303
            ]
        }
    ],
    "materials" : [
        {
            "doubleSided" : true,
            "name" : "Red",
            "pbrMetallicRoughness" : {
                "baseColorFactor" : [
                    0.3263714909553528,
                    0.047813333570957184,
                    0.044884875416755676,
                    1
                ],
                "metallicFactor" : 0,
                "roughnessFactor" : 0.5
            }
        },
        {
            "doubleSided" : true,
            "name" : "DarkRed",
            "pbrMetallicRoughness" : {}
        },
        {
            "doubleSided" : true,
            "name" : "Black",
            "pbrMetallicRoughness" : {
                "baseColorFactor" : [
                    0.02364896982908249,
                    0.02364896982908249,
                    0.02364896982908249,
                    1
                ],
                "metallicFactor" : 0,
                "roughnessFactor" : 0.5
            }
        }
    ],
    "meshes" : [
        {
            "name" : "Cube.018",
            "primitives" : [
                {
                    "attributes" : {
                        "POSITION" : 0,
                        "NORMAL" : 1
                    },
                    "indices" : 2,
                    "material" : 0
                },
                {
                    "attributes" : {
                        "POSITION" : 3,
                        "NORMAL" : 4
                    },
                    "indices" : 5,
                    "material" : 1
                },
                {
                    "attributes" : {
                        "POSITION" : 6,
                        "NORMAL" : 7
                    },
                    "indices" : 8,
                    "material" : 2
                }
            ]
        }
    ],
    "accessors" : [
        {
            "bufferView" : 0,
            "componentType" : 5126,
            "count" : 406,
            "max" : [
                0.4882116913795471,
                1.2412954568862915,
                0.1986074447631836
            ],
            "min" : [
                -0.45061516761779785,
                0.040790826082229614,
                -0.19860747456550598
            ],
            "type" : "VEC3"
        },
        {
            "bufferView" : 1,
            "componentType" : 5126,
            "count" : 406,
            "type" : "VEC3"
        },
        {
            "bufferView" : 2,
            "componentType" : 5123,
            "count" : 1086,
            "type" : "SCALAR"
        },
        {
            "bufferView" : 3,
            "componentType" : 5126,
            "count" : 284,
            "max" : [
                0.4908355176448822,
                0.8628115057945251,
                0.20224101841449738
            ],
            "min" : [
                -0.45194175839424133,
                -0.0017444491386413574,
                -0.20224104821681976
            ],
            "type" : "VEC3"
        },
        {
            "bufferView" : 4,
            "componentType" : 5126,
            "count" : 284,
            "type" : "VEC3"
        },
        {
            "bufferView" : 5,
            "componentType" : 5123,
            "count" : 810,
            "type" : "SCALAR"
        },
        {
            "bufferView" : 6,
            "componentType" : 5126,
            "count" : 160,
            "max" : [
                -0.2007700651884079,
                1.1197967529296875,
                0.126423642039299
            ],
            "min" : [
                -0.45288485288619995,
                0.9666737914085388,
                -0.12642361223697662
            ],
            "type" : "VEC3"
        },
        {
            "bufferView" : 7,
            "componentType" : 5126,
            "count" : 160,
            "type" : "VEC3"
        },
        {
            "bufferView" : 8,
            "componentType" : 5123,
            "count" : 468,
            "type" : "SCALAR"
        }
    ],
    "bufferViews" : [
        {
            "buffer" : 0,
            "byteLength" : 4872,
            "byteOffset" : 0
        },
        {
            "buffer" : 0,
            "byteLength" : 4872,
            "byteOffset" : 4872
        },
        {
            "buffer" : 0,
            "byteLength" : 2172,
            "byteOffset" : 9744
        },
        {
            "buffer" : 0,
            "byteLength" : 3408,
            "byteOffset" : 11916
        },
        {
            "buffer" : 0,
            "byteLength" : 3408,
            "byteOffset" : 15324
        },
        {
            "buffer" : 0,
            "byteLength" : 1620,
            "byteOffset" : 18732
        },
        {
            "buffer" : 0,
            "byteLength" : 1920,
            "byteOffset" : 20352
        },
        {
            "buffer" : 0,
            "byteLength" : 1920,
            "byteOffset" : 22272
        },
        {
            "buffer" : 0,
            "byteLength" : 936,
            "byteOffset" : 24192
        }
    ],
    "buffers" : [
        {
            "byteLength" : 25128,
            "uri" : "data:application/octet-stream;base64,"
        }
    ]
}
