{
    "asset" : {
        "generator" : "Khronos glTF Blender I/O v1.7.33",
        "version" : "2.0"
    },
    "scene" : 0,
    "scenes" : [
        {
            "name" : "Scene",
            "nodes" : [
                0
            ]
        }
    ],
    "nodes" : [
        {
            "mesh" : 0,
            "name" : "GasTank",
            "scale" : [
                0.4832617938518524,
                0.40293020009994507,
                0.4832617938518524
            ]
        }
    ],
    "materials" : [
        {
            "doubleSided" : true,
            "name" : "Yellow",
            "pbrMetallicRoughness" : {
                "baseColorFactor" : [
                    0.8006506562232971,
                    0.5081160664558411,
                    0.07728475332260132,
                    1
                ],
                "metallicFactor" : 0,
                "roughnessFactor" : 0.5
            }
        },
        {
            "doubleSided" : true,
            "name" : "Grey",
            "pbrMetallicRoughness" : {
                "baseColorFactor" : [
                    0.2746773064136505,
                    0.28744083642959595,
                    0.35153263807296753,
                    1
                ],
                "metallicFactor" : 0,
                "roughnessFactor" : 0.5
            }
        },
        {
            "doubleSided" : true,
            "name" : "White",
            "pbrMetallicRoughness" : {
                "baseColorFactor" : [
                    0.6421434283256531,
                    0.6738417744636536,
                    0.5752183794975281,
                    1
                ],
                "metallicFactor" : 0,
                "roughnessFactor" : 0.5
            }
        }
    ],
    "meshes" : [
        {
            "name" : "Cylinder.004",
            "primitives" : [
                {
                    "attributes" : {
                        "POSITION" : 0,
                        "NORMAL" : 1
                    },
                    "indices" : 2,
                    "material" : 0
                },
                {
                    "attributes" : {
                        "POSITION" : 3,
                        "NORMAL" : 4
                    },
                    "indices" : 5,
                    "material" : 1
                },
                {
                    "attributes" : {
                        "POSITION" : 6,
                        "NORMAL" : 7
                    },
                    "indices" : 8,
                    "material" : 2
                }
            ]
        }
    ],
    "accessors" : [
        {
            "bufferView" : 0,
            "componentType" : 5126,
            "count" : 614,
            "max" : [
                1.0410670042037964,
                3.4399075508117676,
                1.0410668849945068
            ],
            "min" : [
                -1.0410670042037964,
                -0.002980470657348633,
                -1.041067123413086
            ],
            "type" : "VEC3"
        },
        {
            "bufferView" : 1,
            "componentType" : 5126,
            "count" : 614,
            "type" : "VEC3"
        },
        {
            "bufferView" : 2,
            "componentType" : 5123,
            "count" : 2154,
            "type" : "SCALAR"
        },
        {
            "bufferView" : 3,
            "componentType" : 5126,
            "count" : 328,
            "max" : [
                0.264051228761673,
                3.0891857147216797,
                0.27763989567756653
            ],
            "min" : [
                -0.2640511691570282,
                2.450260639190674,
                -0.27763983607292175
            ],
            "type" : "VEC3"
        },
        {
            "bufferView" : 4,
            "componentType" : 5126,
            "count" : 328,
            "type" : "VEC3"
        },
        {
            "bufferView" : 5,
            "componentType" : 5123,
            "count" : 756,
            "type" : "SCALAR"
        },
        {
            "bufferView" : 6,
            "componentType" : 5126,
            "count" : 36,
            "max" : [
                1.0410670042037964,
                2.2356791496276855,
                1.0410668849945068
            ],
            "min" : [
                -1.0410670042037964,
                1.1906437873840332,
                -1.041067123413086
            ],
            "type" : "VEC3"
        },
        {
            "bufferView" : 7,
            "componentType" : 5126,
            "count" : 36,
            "type" : "VEC3"
        },
        {
            "bufferView" : 8,
            "componentType" : 5123,
            "count" : 102,
            "type" : "SCALAR"
        }
    ],
    "bufferViews" : [
        {
            "buffer" : 0,
            "byteLength" : 7368,
            "byteOffset" : 0
        },
        {
            "buffer" : 0,
            "byteLength" : 7368,
            "byteOffset" : 7368
        },
        {
            "buffer" : 0,
            "byteLength" : 4308,
            "byteOffset" : 14736
        },
        {
            "buffer" : 0,
            "byteLength" : 3936,
            "byteOffset" : 19044
        },
        {
            "buffer" : 0,
            "byteLength" : 3936,
            "byteOffset" : 22980
        },
        {
            "buffer" : 0,
            "byteLength" : 1512,
            "byteOffset" : 26916
        },
        {
            "buffer" : 0,
            "byteLength" : 432,
            "byteOffset" : 28428
        },
        {
            "buffer" : 0,
            "byteLength" : 432,
            "byteOffset" : 28860
        },
        {
            "buffer" : 0,
            "byteLength" : 204,
            "byteOffset" : 29292
        }
    ],
    "buffers" : [
        {
            "byteLength" : 29496,
            "uri" : "data:application/octet-stream;base64,"
        }
    ]
}
