{
    "asset" : {
        "generator" : "Khronos glTF Blender I/O v1.7.33",
        "version" : "2.0"
    },
    "scene" : 0,
    "scenes" : [
        {
            "name" : "Scene",
            "nodes" : [
                0
            ]
        }
    ],
    "nodes" : [
        {
            "mesh" : 0,
            "name" : "Health",
            "scale" : [
                1.0957876443862915,
                1.0957876443862915,
                1.0957876443862915
            ]
        }
    ],
    "materials" : [
        {
            "doubleSided" : true,
            "name" : "Green",
            "pbrMetallicRoughness" : {
                "baseColorFactor" : [
                    0.08282432705163956,
                    0.1574288308620453,
                    0.01932036504149437,
                    1
                ],
                "metallicFactor" : 0,
                "roughnessFactor" : 0.5
            }
        },
        {
            "doubleSided" : true,
            "name" : "White",
            "pbrMetallicRoughness" : {
                "baseColorFactor" : [
                    0.6421434283256531,
                    0.6738417744636536,
                    0.5752183794975281,
                    1
                ],
                "metallicFactor" : 0,
                "roughnessFactor" : 0.5
            }
        },
        {
            "doubleSided" : true,
            "name" : "DarkGreen",
            "pbrMetallicRoughness" : {}
        }
    ],
    "meshes" : [
        {
            "name" : "Cube.006",
            "primitives" : [
                {
                    "attributes" : {
                        "POSITION" : 0,
                        "NORMAL" : 1
                    },
                    "indices" : 2,
                    "material" : 0
                },
                {
                    "attributes" : {
                        "POSITION" : 3,
                        "NORMAL" : 4
                    },
                    "indices" : 5,
                    "material" : 1
                },
                {
                    "attributes" : {
                        "POSITION" : 6,
                        "NORMAL" : 7
                    },
                    "indices" : 8,
                    "material" : 2
                }
            ]
        }
    ],
    "accessors" : [
        {
            "bufferView" : 0,
            "componentType" : 5126,
            "count" : 248,
            "max" : [
                0.3909528851509094,
                0.6011109352111816,
                0.18430019915103912
            ],
            "min" : [
                -0.39134594798088074,
                -0.004409193992614746,
                -0.18430010974407196
            ],
            "type" : "VEC3"
        },
        {
            "bufferView" : 1,
            "componentType" : 5126,
            "count" : 248,
            "type" : "VEC3"
        },
        {
            "bufferView" : 2,
            "componentType" : 5123,
            "count" : 684,
            "type" : "SCALAR"
        },
        {
            "bufferView" : 3,
            "componentType" : 5126,
            "count" : 88,
            "max" : [
                0.2726268768310547,
                0.6665705442428589,
                0.18392489850521088
            ],
            "min" : [
                -0.26735377311706543,
                0.08179104328155518,
                -0.1839248090982437
            ],
            "type" : "VEC3"
        },
        {
            "bufferView" : 4,
            "componentType" : 5126,
            "count" : 88,
            "type" : "VEC3"
        },
        {
            "bufferView" : 5,
            "componentType" : 5123,
            "count" : 264,
            "type" : "SCALAR"
        },
        {
            "bufferView" : 6,
            "componentType" : 5126,
            "count" : 440,
            "max" : [
                0.393299400806427,
                0.6687397956848145,
                0.18430019915103912
            ],
            "min" : [
                -0.3924078941345215,
                -0.004409193992614746,
                -0.18430010974407196
            ],
            "type" : "VEC3"
        },
        {
            "bufferView" : 7,
            "componentType" : 5126,
            "count" : 440,
            "type" : "VEC3"
        },
        {
            "bufferView" : 8,
            "componentType" : 5123,
            "count" : 1248,
            "type" : "SCALAR"
        }
    ],
    "bufferViews" : [
        {
            "buffer" : 0,
            "byteLength" : 2976,
            "byteOffset" : 0
        },
        {
            "buffer" : 0,
            "byteLength" : 2976,
            "byteOffset" : 2976
        },
        {
            "buffer" : 0,
            "byteLength" : 1368,
            "byteOffset" : 5952
        },
        {
            "buffer" : 0,
            "byteLength" : 1056,
            "byteOffset" : 7320
        },
        {
            "buffer" : 0,
            "byteLength" : 1056,
            "byteOffset" : 8376
        },
        {
            "buffer" : 0,
            "byteLength" : 528,
            "byteOffset" : 9432
        },
        {
            "buffer" : 0,
            "byteLength" : 5280,
            "byteOffset" : 9960
        },
        {
            "buffer" : 0,
            "byteLength" : 5280,
            "byteOffset" : 15240
        },
        {
            "buffer" : 0,
            "byteLength" : 2496,
            "byteOffset" : 20520
        }
    ],
    "buffers" : [
        {
            "byteLength" : 23016,
            "uri" : "data:application/octet-stream;base64,"
        }
    ]
}
