{
    "asset" : {
        "generator" : "Khronos glTF Blender I/O v1.7.33",
        "version" : "2.0"
    },
    "scene" : 0,
    "scenes" : [
        {
            "name" : "Scene",
            "nodes" : [
                0
            ]
        }
    ],
    "nodes" : [
        {
            "mesh" : 0,
            "name" : "Sign",
            "scale" : [
                0.28480345010757446,
                0.28480345010757446,
                0.02403811179101467
            ]
        }
    ],
    "materials" : [
        {
            "doubleSided" : true,
            "name" : "Yellow",
            "pbrMetallicRoughness" : {
                "baseColorFactor" : [
                    0.8006506562232971,
                    0.5081160664558411,
                    0.07728475332260132,
                    1
                ],
                "metallicFactor" : 0,
                "roughnessFactor" : 0.5
            }
        },
        {
            "doubleSided" : true,
            "name" : "Brown",
            "pbrMetallicRoughness" : {
                "baseColorFactor" : [
                    0.259795218706131,
                    0.11994526535272598,
                    0.05758627504110336,
                    1
                ],
                "metallicFactor" : 0,
                "roughnessFactor" : 0.5
            }
        }
    ],
    "meshes" : [
        {
            "name" : "Cube.014",
            "primitives" : [
                {
                    "attributes" : {
                        "POSITION" : 0,
                        "NORMAL" : 1
                    },
                    "indices" : 2,
                    "material" : 0
                },
                {
                    "attributes" : {
                        "POSITION" : 3,
                        "NORMAL" : 4
                    },
                    "indices" : 5,
                    "material" : 1
                }
            ]
        }
    ],
    "accessors" : [
        {
            "bufferView" : 0,
            "componentType" : 5126,
            "count" : 260,
            "max" : [
                0.9999998807907104,
                3.6835947036743164,
                10.867321014404297
            ],
            "min" : [
                -0.9999998807907104,
                0.05930209159851074,
                0
            ],
            "type" : "VEC3"
        },
        {
            "bufferView" : 1,
            "componentType" : 5126,
            "count" : 260,
            "type" : "VEC3"
        },
        {
            "bufferView" : 2,
            "componentType" : 5123,
            "count" : 396,
            "type" : "SCALAR"
        },
        {
            "bufferView" : 3,
            "componentType" : 5126,
            "count" : 20,
            "max" : [
                0.7404699325561523,
                3.1652204990386963,
                7.655749320983887
            ],
            "min" : [
                -0.7404699921607971,
                1.5770504474639893,
                4.23876953125
            ],
            "type" : "VEC3"
        },
        {
            "bufferView" : 4,
            "componentType" : 5126,
            "count" : 20,
            "type" : "VEC3"
        },
        {
            "bufferView" : 5,
            "componentType" : 5123,
            "count" : 30,
            "type" : "SCALAR"
        }
    ],
    "bufferViews" : [
        {
            "buffer" : 0,
            "byteLength" : 3120,
            "byteOffset" : 0
        },
        {
            "buffer" : 0,
            "byteLength" : 3120,
            "byteOffset" : 3120
        },
        {
            "buffer" : 0,
            "byteLength" : 792,
            "byteOffset" : 6240
        },
        {
            "buffer" : 0,
            "byteLength" : 240,
            "byteOffset" : 7032
        },
        {
            "buffer" : 0,
            "byteLength" : 240,
            "byteOffset" : 7272
        },
        {
            "buffer" : 0,
            "byteLength" : 60,
            "byteOffset" : 7512
        }
    ],
    "buffers" : [
        {
            "byteLength" : 7572,
            "uri" : "data:application/octet-stream;base64,"
        }
    ]
}
