{
    "asset" : {
        "generator" : "Khronos glTF Blender I/O v1.7.33",
        "version" : "2.0"
    },
    "scene" : 0,
    "scenes" : [
        {
            "name" : "Scene",
            "nodes" : [
                0
            ]
        }
    ],
    "nodes" : [
        {
            "mesh" : 0,
            "name" : "StreetLight",
            "scale" : [
                0.5860000252723694,
                0.5860000252723694,
                0.5860000252723694
            ]
        }
    ],
    "materials" : [
        {
            "doubleSided" : true,
            "name" : "Grey",
            "pbrMetallicRoughness" : {
                "baseColorFactor" : [
                    0.2746773064136505,
                    0.28744083642959595,
                    0.35153263807296753,
                    1
                ],
                "metallicFactor" : 0,
                "roughnessFactor" : 0.5
            }
        },
        {
            "doubleSided" : true,
            "emissiveFactor" : [
                0.800000011920929,
                0.800000011920929,
                0.800000011920929
            ],
            "name" : "Light",
            "pbrMetallicRoughness" : {}
        }
    ],
    "meshes" : [
        {
            "name" : "Cylinder.023",
            "primitives" : [
                {
                    "attributes" : {
                        "POSITION" : 0,
                        "NORMAL" : 1
                    },
                    "indices" : 2,
                    "material" : 0
                },
                {
                    "attributes" : {
                        "POSITION" : 3,
                        "NORMAL" : 4
                    },
                    "indices" : 5,
                    "material" : 1
                }
            ]
        }
    ],
    "accessors" : [
        {
            "bufferView" : 0,
            "componentType" : 5126,
            "count" : 225,
            "max" : [
                0.3568616509437561,
                9.620774269104004,
                3.21329927444458
            ],
            "min" : [
                -0.35686200857162476,
                -0.013691920787096024,
                -0.34658700227737427
            ],
            "type" : "VEC3"
        },
        {
            "bufferView" : 1,
            "componentType" : 5126,
            "count" : 225,
            "type" : "VEC3"
        },
        {
            "bufferView" : 2,
            "componentType" : 5123,
            "count" : 876,
            "type" : "SCALAR"
        },
        {
            "bufferView" : 3,
            "componentType" : 5126,
            "count" : 40,
            "max" : [
                0.22877474129199982,
                9.37066650390625,
                3.072746753692627
            ],
            "min" : [
                -0.22877472639083862,
                8.952407836914062,
                1.8272064924240112
            ],
            "type" : "VEC3"
        },
        {
            "bufferView" : 4,
            "componentType" : 5126,
            "count" : 40,
            "type" : "VEC3"
        },
        {
            "bufferView" : 5,
            "componentType" : 5123,
            "count" : 96,
            "type" : "SCALAR"
        }
    ],
    "bufferViews" : [
        {
            "buffer" : 0,
            "byteLength" : 2700,
            "byteOffset" : 0
        },
        {
            "buffer" : 0,
            "byteLength" : 2700,
            "byteOffset" : 2700
        },
        {
            "buffer" : 0,
            "byteLength" : 1752,
            "byteOffset" : 5400
        },
        {
            "buffer" : 0,
            "byteLength" : 480,
            "byteOffset" : 7152
        },
        {
            "buffer" : 0,
            "byteLength" : 480,
            "byteOffset" : 7632
        },
        {
            "buffer" : 0,
            "byteLength" : 192,
            "byteOffset" : 8112
        }
    ],
    "buffers" : [
        {
            "byteLength" : 8304,
            "uri" : "data:application/octet-stream;base64,"
        }
    ]
}
