{
    "asset" : {
        "generator" : "Khronos glTF Blender I/O v1.7.33",
        "version" : "2.0"
    },
    "scene" : 0,
    "scenes" : [
        {
            "name" : "Scene",
            "nodes" : [
                0
            ]
        }
    ],
    "nodes" : [
        {
            "mesh" : 0,
            "name" : "Structure_3",
            "scale" : [
                0.897076427936554,
                0.897076427936554,
                0.897076427936554
            ]
        }
    ],
    "materials" : [
        {
            "doubleSided" : true,
            "name" : "Cardboard",
            "pbrMetallicRoughness" : {
                "baseColorFactor" : [
                    0.4109334349632263,
                    0.2009478062391281,
                    0.08130298554897308,
                    1
                ],
                "metallicFactor" : 0,
                "roughnessFactor" : 0.5
            }
        },
        {
            "doubleSided" : true,
            "name" : "Tape",
            "pbrMetallicRoughness" : {
                "baseColorFactor" : [
                    0.4109334349632263,
                    0.37330713868141174,
                    0.2728308141231537,
                    1
                ],
                "metallicFactor" : 0,
                "roughnessFactor" : 0.5
            }
        },
        {
            "doubleSided" : true,
            "name" : "Wood",
            "pbrMetallicRoughness" : {
                "baseColorFactor" : [
                    0.3757452964782715,
                    0.20292167365550995,
                    0.0587104856967926,
                    1
                ],
                "metallicFactor" : 0,
                "roughnessFactor" : 0.5
            }
        },
        {
            "doubleSided" : true,
            "name" : "Grey",
            "pbrMetallicRoughness" : {
                "baseColorFactor" : [
                    0.2746773064136505,
                    0.28744083642959595,
                    0.35153263807296753,
                    1
                ],
                "metallicFactor" : 0,
                "roughnessFactor" : 0.5
            }
        },
        {
            "doubleSided" : true,
            "name" : "Grey2",
            "pbrMetallicRoughness" : {
                "baseColorFactor" : [
                    0.14239658415317535,
                    0.14239658415317535,
                    0.14239658415317535,
                    1
                ],
                "metallicFactor" : 0,
                "roughnessFactor" : 0.5
            }
        },
        {
            "doubleSided" : true,
            "name" : "Blue",
            "pbrMetallicRoughness" : {
                "baseColorFactor" : [
                    0.05386359244585037,
                    0.0880281999707222,
                    0.3263714909553528,
                    1
                ],
                "metallicFactor" : 0,
                "roughnessFactor" : 0.5
            }
        }
    ],
    "meshes" : [
        {
            "name" : "Cube.333",
            "primitives" : [
                {
                    "attributes" : {
                        "POSITION" : 0,
                        "NORMAL" : 1,
                        "TEXCOORD_0" : 2
                    },
                    "indices" : 3,
                    "material" : 0
                },
                {
                    "attributes" : {
                        "POSITION" : 4,
                        "NORMAL" : 5,
                        "TEXCOORD_0" : 6
                    },
                    "indices" : 7,
                    "material" : 1
                },
                {
                    "attributes" : {
                        "POSITION" : 8,
                        "NORMAL" : 9,
                        "TEXCOORD_0" : 10
                    },
                    "indices" : 11,
                    "material" : 2
                },
                {
                    "attributes" : {
                        "POSITION" : 12,
                        "NORMAL" : 13,
                        "TEXCOORD_0" : 14
                    },
                    "indices" : 15,
                    "material" : 3
                },
                {
                    "attributes" : {
                        "POSITION" : 16,
                        "NORMAL" : 17,
                        "TEXCOORD_0" : 18
                    },
                    "indices" : 19,
                    "material" : 4
                },
                {
                    "attributes" : {
                        "POSITION" : 20,
                        "NORMAL" : 21,
                        "TEXCOORD_0" : 22
                    },
                    "indices" : 23,
                    "material" : 5
                }
            ]
        }
    ],
    "accessors" : [
        {
            "bufferView" : 0,
            "componentType" : 5126,
            "count" : 699,
            "max" : [
                -3.779453754425049,
                1.6221693754196167,
                1.4214744567871094
            ],
            "min" : [
                -5.0572052001953125,
                0,
                -1.568846583366394
            ],
            "type" : "VEC3"
        },
        {
            "bufferView" : 1,
            "componentType" : 5126,
            "count" : 699,
            "type" : "VEC3"
        },
        {
            "bufferView" : 2,
            "componentType" : 5126,
            "count" : 699,
            "type" : "VEC2"
        },
        {
            "bufferView" : 3,
            "componentType" : 5123,
            "count" : 1080,
            "type" : "SCALAR"
        },
        {
            "bufferView" : 4,
            "componentType" : 5126,
            "count" : 144,
            "max" : [
                -3.7844858169555664,
                1.6221693754196167,
                1.23781418800354
            ],
            "min" : [
                -5.001713752746582,
                0.024974822998046875,
                -1.5673260688781738
            ],
            "type" : "VEC3"
        },
        {
            "bufferView" : 5,
            "componentType" : 5126,
            "count" : 144,
            "type" : "VEC3"
        },
        {
            "bufferView" : 6,
            "componentType" : 5126,
            "count" : 144,
            "type" : "VEC2"
        },
        {
            "bufferView" : 7,
            "componentType" : 5123,
            "count" : 216,
            "type" : "SCALAR"
        },
        {
            "bufferView" : 8,
            "componentType" : 5126,
            "count" : 1702,
            "max" : [
                1.075912356376648,
                3.7816505432128906,
                2.2994582653045654
            ],
            "min" : [
                -3.3320648670196533,
                0.03524782508611679,
                -1.635936975479126
            ],
            "type" : "VEC3"
        },
        {
            "bufferView" : 9,
            "componentType" : 5126,
            "count" : 1702,
            "type" : "VEC3"
        },
        {
            "bufferView" : 10,
            "componentType" : 5126,
            "count" : 1702,
            "type" : "VEC2"
        },
        {
            "bufferView" : 11,
            "componentType" : 5123,
            "count" : 2580,
            "type" : "SCALAR"
        },
        {
            "bufferView" : 12,
            "componentType" : 5126,
            "count" : 3120,
            "max" : [
                3.71970534324646,
                10.582271575927734,
                2.984139919281006
            ],
            "min" : [
                -3.71970534324646,
                -0.02152552455663681,
                -2.0138046741485596
            ],
            "type" : "VEC3"
        },
        {
            "bufferView" : 13,
            "componentType" : 5126,
            "count" : 3120,
            "type" : "VEC3"
        },
        {
            "bufferView" : 14,
            "componentType" : 5126,
            "count" : 3120,
            "type" : "VEC2"
        },
        {
            "bufferView" : 15,
            "componentType" : 5123,
            "count" : 6537,
            "type" : "SCALAR"
        },
        {
            "bufferView" : 16,
            "componentType" : 5126,
            "count" : 1244,
            "max" : [
                3.490511178970337,
                9.479393005371094,
                3.026289939880371
            ],
            "min" : [
                -2.4222004413604736,
                -0.03127574920654297,
                -1.805083155632019
            ],
            "type" : "VEC3"
        },
        {
            "bufferView" : 17,
            "componentType" : 5126,
            "count" : 1244,
            "type" : "VEC3"
        },
        {
            "bufferView" : 18,
            "componentType" : 5126,
            "count" : 1244,
            "type" : "VEC2"
        },
        {
            "bufferView" : 19,
            "componentType" : 5123,
            "count" : 2316,
            "type" : "SCALAR"
        },
        {
            "bufferView" : 20,
            "componentType" : 5126,
            "count" : 2036,
            "max" : [
                3.6848480701446533,
                5.85999059677124,
                2.129305362701416
            ],
            "min" : [
                -3.6848480701446533,
                0.10279292613267899,
                -1.9889132976531982
            ],
            "type" : "VEC3"
        },
        {
            "bufferView" : 21,
            "componentType" : 5126,
            "count" : 2036,
            "type" : "VEC3"
        },
        {
            "bufferView" : 22,
            "componentType" : 5126,
            "count" : 2036,
            "type" : "VEC2"
        },
        {
            "bufferView" : 23,
            "componentType" : 5123,
            "count" : 3936,
            "type" : "SCALAR"
        }
    ],
    "bufferViews" : [
        {
            "buffer" : 0,
            "byteLength" : 8388,
            "byteOffset" : 0
        },
        {
            "buffer" : 0,
            "byteLength" : 8388,
            "byteOffset" : 8388
        },
        {
            "buffer" : 0,
            "byteLength" : 5592,
            "byteOffset" : 16776
        },
        {
            "buffer" : 0,
            "byteLength" : 2160,
            "byteOffset" : 22368
        },
        {
            "buffer" : 0,
            "byteLength" : 1728,
            "byteOffset" : 24528
        },
        {
            "buffer" : 0,
            "byteLength" : 1728,
            "byteOffset" : 26256
        },
        {
            "buffer" : 0,
            "byteLength" : 1152,
            "byteOffset" : 27984
        },
        {
            "buffer" : 0,
            "byteLength" : 432,
            "byteOffset" : 29136
        },
        {
            "buffer" : 0,
            "byteLength" : 20424,
            "byteOffset" : 29568
        },
        {
            "buffer" : 0,
            "byteLength" : 20424,
            "byteOffset" : 49992
        },
        {
            "buffer" : 0,
            "byteLength" : 13616,
            "byteOffset" : 70416
        },
        {
            "buffer" : 0,
            "byteLength" : 5160,
            "byteOffset" : 84032
        },
        {
            "buffer" : 0,
            "byteLength" : 37440,
            "byteOffset" : 89192
        },
        {
            "buffer" : 0,
            "byteLength" : 37440,
            "byteOffset" : 126632
        },
        {
            "buffer" : 0,
            "byteLength" : 24960,
            "byteOffset" : 164072
        },
        {
            "buffer" : 0,
            "byteLength" : 13074,
            "byteOffset" : 189032
        },
        {
            "buffer" : 0,
            "byteLength" : 14928,
            "byteOffset" : 202108
        },
        {
            "buffer" : 0,
            "byteLength" : 14928,
            "byteOffset" : 217036
        },
        {
            "buffer" : 0,
            "byteLength" : 9952,
            "byteOffset" : 231964
        },
        {
            "buffer" : 0,
            "byteLength" : 4632,
            "byteOffset" : 241916
        },
        {
            "buffer" : 0,
            "byteLength" : 24432,
            "byteOffset" : 246548
        },
        {
            "buffer" : 0,
            "byteLength" : 24432,
            "byteOffset" : 270980
        },
        {
            "buffer" : 0,
            "byteLength" : 16288,
            "byteOffset" : 295412
        },
        {
            "buffer" : 0,
            "byteLength" : 7872,
            "byteOffset" : 311700
        }
    ],
    "buffers" : [
        {
            "byteLength" : 319572,
            "uri" : "data:application/octet-stream;base64,"
        }
    ]
}
