{
    "asset" : {
        "generator" : "Khronos glTF Blender I/O v1.7.33",
        "version" : "2.0"
    },
    "scene" : 0,
    "scenes" : [
        {
            "name" : "Scene",
            "nodes" : [
                0
            ]
        }
    ],
    "nodes" : [
        {
            "mesh" : 0,
            "name" : "Structure_2",
            "scale" : [
                0.5860000252723694,
                0.5860000252723694,
                0.5860000252723694
            ]
        }
    ],
    "materials" : [
        {
            "doubleSided" : true,
            "name" : "Green",
            "pbrMetallicRoughness" : {
                "baseColorFactor" : [
                    0.08282432705163956,
                    0.1574288308620453,
                    0.01932036504149437,
                    1
                ],
                "metallicFactor" : 0,
                "roughnessFactor" : 0.5
            }
        },
        {
            "doubleSided" : true,
            "name" : "Yellow",
            "pbrMetallicRoughness" : {
                "baseColorFactor" : [
                    0.8006506562232971,
                    0.5081160664558411,
                    0.07728475332260132,
                    1
                ],
                "metallicFactor" : 0,
                "roughnessFactor" : 0.5
            }
        },
        {
            "doubleSided" : true,
            "name" : "Cardboard",
            "pbrMetallicRoughness" : {
                "baseColorFactor" : [
                    0.4109334349632263,
                    0.2009478062391281,
                    0.08130298554897308,
                    1
                ],
                "metallicFactor" : 0,
                "roughnessFactor" : 0.5
            }
        },
        {
            "doubleSided" : true,
            "name" : "Tape",
            "pbrMetallicRoughness" : {
                "baseColorFactor" : [
                    0.4109334349632263,
                    0.37330713868141174,
                    0.2728308141231537,
                    1
                ],
                "metallicFactor" : 0,
                "roughnessFactor" : 0.5
            }
        },
        {
            "doubleSided" : true,
            "name" : "Wood",
            "pbrMetallicRoughness" : {
                "baseColorFactor" : [
                    0.3757452964782715,
                    0.20292167365550995,
                    0.0587104856967926,
                    1
                ],
                "metallicFactor" : 0,
                "roughnessFactor" : 0.5
            }
        },
        {
            "doubleSided" : true,
            "name" : "Grey",
            "pbrMetallicRoughness" : {
                "baseColorFactor" : [
                    0.2746773064136505,
                    0.28744083642959595,
                    0.35153263807296753,
                    1
                ],
                "metallicFactor" : 0,
                "roughnessFactor" : 0.5
            }
        },
        {
            "doubleSided" : true,
            "name" : "Grey2",
            "pbrMetallicRoughness" : {
                "baseColorFactor" : [
                    0.14239658415317535,
                    0.14239658415317535,
                    0.14239658415317535,
                    1
                ],
                "metallicFactor" : 0,
                "roughnessFactor" : 0.5
            }
        },
        {
            "doubleSided" : true,
            "name" : "Wood_Light",
            "pbrMetallicRoughness" : {
                "baseColorFactor" : [
                    0.6382654905319214,
                    0.3720409572124481,
                    0.1016932800412178,
                    1
                ],
                "metallicFactor" : 0,
                "roughnessFactor" : 0.5
            }
        }
    ],
    "meshes" : [
        {
            "name" : "Cube.329",
            "primitives" : [
                {
                    "attributes" : {
                        "POSITION" : 0,
                        "NORMAL" : 1,
                        "TEXCOORD_0" : 2
                    },
                    "indices" : 3,
                    "material" : 0
                },
                {
                    "attributes" : {
                        "POSITION" : 4,
                        "NORMAL" : 5,
                        "TEXCOORD_0" : 6
                    },
                    "indices" : 7,
                    "material" : 1
                },
                {
                    "attributes" : {
                        "POSITION" : 8,
                        "NORMAL" : 9,
                        "TEXCOORD_0" : 10
                    },
                    "indices" : 11,
                    "material" : 2
                },
                {
                    "attributes" : {
                        "POSITION" : 12,
                        "NORMAL" : 13,
                        "TEXCOORD_0" : 14
                    },
                    "indices" : 15,
                    "material" : 3
                },
                {
                    "attributes" : {
                        "POSITION" : 16,
                        "NORMAL" : 17,
                        "TEXCOORD_0" : 18
                    },
                    "indices" : 19,
                    "material" : 4
                },
                {
                    "attributes" : {
                        "POSITION" : 20,
                        "NORMAL" : 21,
                        "TEXCOORD_0" : 22
                    },
                    "indices" : 23,
                    "material" : 5
                },
                {
                    "attributes" : {
                        "POSITION" : 24,
                        "NORMAL" : 25,
                        "TEXCOORD_0" : 26
                    },
                    "indices" : 27,
                    "material" : 6
                },
                {
                    "attributes" : {
                        "POSITION" : 28,
                        "NORMAL" : 29,
                        "TEXCOORD_0" : 30
                    },
                    "indices" : 31,
                    "material" : 7
                }
            ]
        }
    ],
    "accessors" : [
        {
            "bufferView" : 0,
            "componentType" : 5126,
            "count" : 1872,
            "max" : [
                11.093511581420898,
                10.950515747070312,
                10.124385833740234
            ],
            "min" : [
                -1.5975202322006226,
                5.466076850891113,
                -3.3466410636901855
            ],
            "type" : "VEC3"
        },
        {
            "bufferView" : 1,
            "componentType" : 5126,
            "count" : 1872,
            "type" : "VEC3"
        },
        {
            "bufferView" : 2,
            "componentType" : 5126,
            "count" : 1872,
            "type" : "VEC2"
        },
        {
            "bufferView" : 3,
            "componentType" : 5123,
            "count" : 2976,
            "type" : "SCALAR"
        },
        {
            "bufferView" : 4,
            "componentType" : 5126,
            "count" : 937,
            "max" : [
                5.640938758850098,
                5.465112686157227,
                3.044722080230713
            ],
            "min" : [
                -5.640938758850098,
                0.14121770858764648,
                -3.044722080230713
            ],
            "type" : "VEC3"
        },
        {
            "bufferView" : 5,
            "componentType" : 5126,
            "count" : 937,
            "type" : "VEC3"
        },
        {
            "bufferView" : 6,
            "componentType" : 5126,
            "count" : 937,
            "type" : "VEC2"
        },
        {
            "bufferView" : 7,
            "componentType" : 5123,
            "count" : 1872,
            "type" : "SCALAR"
        },
        {
            "bufferView" : 8,
            "componentType" : 5126,
            "count" : 1906,
            "max" : [
                6.387388706207275,
                12.924671173095703,
                5.415035247802734
            ],
            "min" : [
                1.0261651277542114,
                2.7373678221920272e-06,
                -2.932912588119507
            ],
            "type" : "VEC3"
        },
        {
            "bufferView" : 9,
            "componentType" : 5126,
            "count" : 1906,
            "type" : "VEC3"
        },
        {
            "bufferView" : 10,
            "componentType" : 5126,
            "count" : 1906,
            "type" : "VEC2"
        },
        {
            "bufferView" : 11,
            "componentType" : 5123,
            "count" : 2970,
            "type" : "SCALAR"
        },
        {
            "bufferView" : 12,
            "componentType" : 5126,
            "count" : 384,
            "max" : [
                6.232606887817383,
                12.924671173095703,
                5.28447961807251
            ],
            "min" : [
                1.3073205947875977,
                0.0382353737950325,
                -2.5080296993255615
            ],
            "type" : "VEC3"
        },
        {
            "bufferView" : 13,
            "componentType" : 5126,
            "count" : 384,
            "type" : "VEC3"
        },
        {
            "bufferView" : 14,
            "componentType" : 5126,
            "count" : 384,
            "type" : "VEC2"
        },
        {
            "bufferView" : 15,
            "componentType" : 5123,
            "count" : 594,
            "type" : "SCALAR"
        },
        {
            "bufferView" : 16,
            "componentType" : 5126,
            "count" : 1242,
            "max" : [
                2.6746366024017334,
                3.7189266681671143,
                5.088769912719727
            ],
            "min" : [
                -5.652875900268555,
                -0.08971759676933289,
                2.9347939491271973
            ],
            "type" : "VEC3"
        },
        {
            "bufferView" : 17,
            "componentType" : 5126,
            "count" : 1242,
            "type" : "VEC3"
        },
        {
            "bufferView" : 18,
            "componentType" : 5126,
            "count" : 1242,
            "type" : "VEC2"
        },
        {
            "bufferView" : 19,
            "componentType" : 5123,
            "count" : 2370,
            "type" : "SCALAR"
        },
        {
            "bufferView" : 20,
            "componentType" : 5126,
            "count" : 2310,
            "max" : [
                11.240965843200684,
                13.020827293395996,
                9.221057891845703
            ],
            "min" : [
                -6.820751190185547,
                -0.155355304479599,
                -3.480166435241699
            ],
            "type" : "VEC3"
        },
        {
            "bufferView" : 21,
            "componentType" : 5126,
            "count" : 2310,
            "type" : "VEC3"
        },
        {
            "bufferView" : 22,
            "componentType" : 5126,
            "count" : 2310,
            "type" : "VEC2"
        },
        {
            "bufferView" : 23,
            "componentType" : 5123,
            "count" : 4314,
            "type" : "SCALAR"
        },
        {
            "bufferView" : 24,
            "componentType" : 5126,
            "count" : 300,
            "max" : [
                -3.569579601287842,
                6.631281852722168,
                0.00375644420273602
            ],
            "min" : [
                -6.698853969573975,
                -0.2693732976913452,
                -2.077878713607788
            ],
            "type" : "VEC3"
        },
        {
            "bufferView" : 25,
            "componentType" : 5126,
            "count" : 300,
            "type" : "VEC3"
        },
        {
            "bufferView" : 26,
            "componentType" : 5126,
            "count" : 300,
            "type" : "VEC2"
        },
        {
            "bufferView" : 27,
            "componentType" : 5123,
            "count" : 660,
            "type" : "SCALAR"
        },
        {
            "bufferView" : 28,
            "componentType" : 5126,
            "count" : 48,
            "max" : [
                -3.250441789627075,
                3.02555513381958,
                4.934603214263916
            ],
            "min" : [
                -5.0960845947265625,
                0.02295839600265026,
                3.0889604091644287
            ],
            "type" : "VEC3"
        },
        {
            "bufferView" : 29,
            "componentType" : 5126,
            "count" : 48,
            "type" : "VEC3"
        },
        {
            "bufferView" : 30,
            "componentType" : 5126,
            "count" : 48,
            "type" : "VEC2"
        },
        {
            "bufferView" : 31,
            "componentType" : 5123,
            "count" : 72,
            "type" : "SCALAR"
        }
    ],
    "bufferViews" : [
        {
            "buffer" : 0,
            "byteLength" : 22464,
            "byteOffset" : 0
        },
        {
            "buffer" : 0,
            "byteLength" : 22464,
            "byteOffset" : 22464
        },
        {
            "buffer" : 0,
            "byteLength" : 14976,
            "byteOffset" : 44928
        },
        {
            "buffer" : 0,
            "byteLength" : 5952,
            "byteOffset" : 59904
        },
        {
            "buffer" : 0,
            "byteLength" : 11244,
            "byteOffset" : 65856
        },
        {
            "buffer" : 0,
            "byteLength" : 11244,
            "byteOffset" : 77100
        },
        {
            "buffer" : 0,
            "byteLength" : 7496,
            "byteOffset" : 88344
        },
        {
            "buffer" : 0,
            "byteLength" : 3744,
            "byteOffset" : 95840
        },
        {
            "buffer" : 0,
            "byteLength" : 22872,
            "byteOffset" : 99584
        },
        {
            "buffer" : 0,
            "byteLength" : 22872,
            "byteOffset" : 122456
        },
        {
            "buffer" : 0,
            "byteLength" : 15248,
            "byteOffset" : 145328
        },
        {
            "buffer" : 0,
            "byteLength" : 5940,
            "byteOffset" : 160576
        },
        {
            "buffer" : 0,
            "byteLength" : 4608,
            "byteOffset" : 166516
        },
        {
            "buffer" : 0,
            "byteLength" : 4608,
            "byteOffset" : 171124
        },
        {
            "buffer" : 0,
            "byteLength" : 3072,
            "byteOffset" : 175732
        },
        {
            "buffer" : 0,
            "byteLength" : 1188,
            "byteOffset" : 178804
        },
        {
            "buffer" : 0,
            "byteLength" : 14904,
            "byteOffset" : 179992
        },
        {
            "buffer" : 0,
            "byteLength" : 14904,
            "byteOffset" : 194896
        },
        {
            "buffer" : 0,
            "byteLength" : 9936,
            "byteOffset" : 209800
        },
        {
            "buffer" : 0,
            "byteLength" : 4740,
            "byteOffset" : 219736
        },
        {
            "buffer" : 0,
            "byteLength" : 27720,
            "byteOffset" : 224476
        },
        {
            "buffer" : 0,
            "byteLength" : 27720,
            "byteOffset" : 252196
        },
        {
            "buffer" : 0,
            "byteLength" : 18480,
            "byteOffset" : 279916
        },
        {
            "buffer" : 0,
            "byteLength" : 8628,
            "byteOffset" : 298396
        },
        {
            "buffer" : 0,
            "byteLength" : 3600,
            "byteOffset" : 307024
        },
        {
            "buffer" : 0,
            "byteLength" : 3600,
            "byteOffset" : 310624
        },
        {
            "buffer" : 0,
            "byteLength" : 2400,
            "byteOffset" : 314224
        },
        {
            "buffer" : 0,
            "byteLength" : 1320,
            "byteOffset" : 316624
        },
        {
            "buffer" : 0,
            "byteLength" : 576,
            "byteOffset" : 317944
        },
        {
            "buffer" : 0,
            "byteLength" : 576,
            "byteOffset" : 318520
        },
        {
            "buffer" : 0,
            "byteLength" : 384,
            "byteOffset" : 319096
        },
        {
            "buffer" : 0,
            "byteLength" : 144,
            "byteOffset" : 319480
        }
    ],
    "buffers" : [
        {
            "byteLength" : 319624,
            "uri" : "data:application/octet-stream;base64,"
        }
    ]
}
