{
    "asset" : {
        "generator" : "Khronos glTF Blender I/O v1.7.33",
        "version" : "2.0"
    },
    "scene" : 0,
    "scenes" : [
        {
            "name" : "Scene",
            "nodes" : [
                0
            ]
        }
    ],
    "nodes" : [
        {
            "mesh" : 0,
            "name" : "Structure_4",
            "scale" : [
                0.5860000252723694,
                0.5860000252723694,
                0.5860000252723694
            ]
        }
    ],
    "materials" : [
        {
            "doubleSided" : true,
            "name" : "Cyan",
            "pbrMetallicRoughness" : {
                "baseColorFactor" : [
                    0.07829224318265915,
                    0.26563289761543274,
                    0.3263714909553528,
                    1
                ],
                "metallicFactor" : 0,
                "roughnessFactor" : 0.5
            }
        },
        {
            "doubleSided" : true,
            "name" : "Yellow",
            "pbrMetallicRoughness" : {
                "baseColorFactor" : [
                    0.8006506562232971,
                    0.5081160664558411,
                    0.07728475332260132,
                    1
                ],
                "metallicFactor" : 0,
                "roughnessFactor" : 0.5
            }
        },
        {
            "doubleSided" : true,
            "name" : "Wood",
            "pbrMetallicRoughness" : {
                "baseColorFactor" : [
                    0.3757452964782715,
                    0.20292167365550995,
                    0.0587104856967926,
                    1
                ],
                "metallicFactor" : 0,
                "roughnessFactor" : 0.5
            }
        },
        {
            "doubleSided" : true,
            "name" : "Grey",
            "pbrMetallicRoughness" : {
                "baseColorFactor" : [
                    0.2746773064136505,
                    0.28744083642959595,
                    0.35153263807296753,
                    1
                ],
                "metallicFactor" : 0,
                "roughnessFactor" : 0.5
            }
        },
        {
            "doubleSided" : true,
            "name" : "Green",
            "pbrMetallicRoughness" : {
                "baseColorFactor" : [
                    0.08282432705163956,
                    0.1574288308620453,
                    0.01932036504149437,
                    1
                ],
                "metallicFactor" : 0,
                "roughnessFactor" : 0.5
            }
        },
        {
            "doubleSided" : true,
            "name" : "Black",
            "pbrMetallicRoughness" : {
                "baseColorFactor" : [
                    0.02364896982908249,
                    0.02364896982908249,
                    0.02364896982908249,
                    1
                ],
                "metallicFactor" : 0,
                "roughnessFactor" : 0.5
            }
        },
        {
            "doubleSided" : true,
            "name" : "DarkGrey",
            "pbrMetallicRoughness" : {
                "baseColorFactor" : [
                    0.0666259378194809,
                    0.0666259378194809,
                    0.0666259378194809,
                    1
                ],
                "metallicFactor" : 0,
                "roughnessFactor" : 0.5
            }
        }
    ],
    "meshes" : [
        {
            "name" : "Cube.339",
            "primitives" : [
                {
                    "attributes" : {
                        "POSITION" : 0,
                        "NORMAL" : 1,
                        "TEXCOORD_0" : 2
                    },
                    "indices" : 3,
                    "material" : 0
                },
                {
                    "attributes" : {
                        "POSITION" : 4,
                        "NORMAL" : 5,
                        "TEXCOORD_0" : 6
                    },
                    "indices" : 7,
                    "material" : 1
                },
                {
                    "attributes" : {
                        "POSITION" : 8,
                        "NORMAL" : 9,
                        "TEXCOORD_0" : 10
                    },
                    "indices" : 11,
                    "material" : 2
                },
                {
                    "attributes" : {
                        "POSITION" : 12,
                        "NORMAL" : 13,
                        "TEXCOORD_0" : 14
                    },
                    "indices" : 15,
                    "material" : 3
                },
                {
                    "attributes" : {
                        "POSITION" : 16,
                        "NORMAL" : 17,
                        "TEXCOORD_0" : 18
                    },
                    "indices" : 19,
                    "material" : 4
                },
                {
                    "attributes" : {
                        "POSITION" : 20,
                        "NORMAL" : 21,
                        "TEXCOORD_0" : 22
                    },
                    "indices" : 23,
                    "material" : 5
                },
                {
                    "attributes" : {
                        "POSITION" : 24,
                        "NORMAL" : 25,
                        "TEXCOORD_0" : 26
                    },
                    "indices" : 27,
                    "material" : 6
                }
            ]
        }
    ],
    "accessors" : [
        {
            "bufferView" : 0,
            "componentType" : 5126,
            "count" : 937,
            "max" : [
                5.640938758850098,
                5.465112686157227,
                3.044722080230713
            ],
            "min" : [
                -5.640938758850098,
                0.14121770858764648,
                -3.044722080230713
            ],
            "type" : "VEC3"
        },
        {
            "bufferView" : 1,
            "componentType" : 5126,
            "count" : 937,
            "type" : "VEC3"
        },
        {
            "bufferView" : 2,
            "componentType" : 5126,
            "count" : 937,
            "type" : "VEC2"
        },
        {
            "bufferView" : 3,
            "componentType" : 5123,
            "count" : 1872,
            "type" : "SCALAR"
        },
        {
            "bufferView" : 4,
            "componentType" : 5126,
            "count" : 1689,
            "max" : [
                3.5948824882507324,
                10.898058891296387,
                8.313509941101074
            ],
            "min" : [
                -2.591427803039551,
                5.46607780456543,
                -3.0189692974090576
            ],
            "type" : "VEC3"
        },
        {
            "bufferView" : 5,
            "componentType" : 5126,
            "count" : 1689,
            "type" : "VEC3"
        },
        {
            "bufferView" : 6,
            "componentType" : 5126,
            "count" : 1689,
            "type" : "VEC2"
        },
        {
            "bufferView" : 7,
            "componentType" : 5123,
            "count" : 2616,
            "type" : "SCALAR"
        },
        {
            "bufferView" : 8,
            "componentType" : 5126,
            "count" : 512,
            "max" : [
                0.40160226821899414,
                11.36970043182373,
                3.1811087131500244
            ],
            "min" : [
                -3.1161975860595703,
                10.900500297546387,
                -0.4995598793029785
            ],
            "type" : "VEC3"
        },
        {
            "bufferView" : 9,
            "componentType" : 5126,
            "count" : 512,
            "type" : "VEC3"
        },
        {
            "bufferView" : 10,
            "componentType" : 5126,
            "count" : 512,
            "type" : "VEC2"
        },
        {
            "bufferView" : 11,
            "componentType" : 5123,
            "count" : 774,
            "type" : "SCALAR"
        },
        {
            "bufferView" : 12,
            "componentType" : 5126,
            "count" : 3106,
            "max" : [
                8.730789184570312,
                13.020828247070312,
                8.368224143981934
            ],
            "min" : [
                -7.927257061004639,
                -0.037388790398836136,
                -4.245025634765625
            ],
            "type" : "VEC3"
        },
        {
            "bufferView" : 13,
            "componentType" : 5126,
            "count" : 3106,
            "type" : "VEC3"
        },
        {
            "bufferView" : 14,
            "componentType" : 5126,
            "count" : 3106,
            "type" : "VEC2"
        },
        {
            "bufferView" : 15,
            "componentType" : 5123,
            "count" : 6486,
            "type" : "SCALAR"
        },
        {
            "bufferView" : 16,
            "componentType" : 5126,
            "count" : 336,
            "max" : [
                -5.963260173797607,
                2.953467845916748,
                2.3815038204193115
            ],
            "min" : [
                -7.992432117462158,
                -0.009348733350634575,
                -1.4427008628845215
            ],
            "type" : "VEC3"
        },
        {
            "bufferView" : 17,
            "componentType" : 5126,
            "count" : 336,
            "type" : "VEC3"
        },
        {
            "bufferView" : 18,
            "componentType" : 5126,
            "count" : 336,
            "type" : "VEC2"
        },
        {
            "bufferView" : 19,
            "componentType" : 5123,
            "count" : 504,
            "type" : "SCALAR"
        },
        {
            "bufferView" : 20,
            "componentType" : 5126,
            "count" : 1710,
            "max" : [
                -6.150886535644531,
                3.0804896354675293,
                2.1434638500213623
            ],
            "min" : [
                -8.99350357055664,
                -0.047282177954912186,
                -2.313140630722046
            ],
            "type" : "VEC3"
        },
        {
            "bufferView" : 21,
            "componentType" : 5126,
            "count" : 1710,
            "type" : "VEC3"
        },
        {
            "bufferView" : 22,
            "componentType" : 5126,
            "count" : 1710,
            "type" : "VEC2"
        },
        {
            "bufferView" : 23,
            "componentType" : 5123,
            "count" : 2604,
            "type" : "SCALAR"
        },
        {
            "bufferView" : 24,
            "componentType" : 5126,
            "count" : 852,
            "max" : [
                8.730789184570312,
                12.036598205566406,
                3.4270527362823486
            ],
            "min" : [
                -7.903104782104492,
                -0.03916294500231743,
                -4.28170108795166
            ],
            "type" : "VEC3"
        },
        {
            "bufferView" : 25,
            "componentType" : 5126,
            "count" : 852,
            "type" : "VEC3"
        },
        {
            "bufferView" : 26,
            "componentType" : 5126,
            "count" : 852,
            "type" : "VEC2"
        },
        {
            "bufferView" : 27,
            "componentType" : 5123,
            "count" : 1734,
            "type" : "SCALAR"
        }
    ],
    "bufferViews" : [
        {
            "buffer" : 0,
            "byteLength" : 11244,
            "byteOffset" : 0
        },
        {
            "buffer" : 0,
            "byteLength" : 11244,
            "byteOffset" : 11244
        },
        {
            "buffer" : 0,
            "byteLength" : 7496,
            "byteOffset" : 22488
        },
        {
            "buffer" : 0,
            "byteLength" : 3744,
            "byteOffset" : 29984
        },
        {
            "buffer" : 0,
            "byteLength" : 20268,
            "byteOffset" : 33728
        },
        {
            "buffer" : 0,
            "byteLength" : 20268,
            "byteOffset" : 53996
        },
        {
            "buffer" : 0,
            "byteLength" : 13512,
            "byteOffset" : 74264
        },
        {
            "buffer" : 0,
            "byteLength" : 5232,
            "byteOffset" : 87776
        },
        {
            "buffer" : 0,
            "byteLength" : 6144,
            "byteOffset" : 93008
        },
        {
            "buffer" : 0,
            "byteLength" : 6144,
            "byteOffset" : 99152
        },
        {
            "buffer" : 0,
            "byteLength" : 4096,
            "byteOffset" : 105296
        },
        {
            "buffer" : 0,
            "byteLength" : 1548,
            "byteOffset" : 109392
        },
        {
            "buffer" : 0,
            "byteLength" : 37272,
            "byteOffset" : 110940
        },
        {
            "buffer" : 0,
            "byteLength" : 37272,
            "byteOffset" : 148212
        },
        {
            "buffer" : 0,
            "byteLength" : 24848,
            "byteOffset" : 185484
        },
        {
            "buffer" : 0,
            "byteLength" : 12972,
            "byteOffset" : 210332
        },
        {
            "buffer" : 0,
            "byteLength" : 4032,
            "byteOffset" : 223304
        },
        {
            "buffer" : 0,
            "byteLength" : 4032,
            "byteOffset" : 227336
        },
        {
            "buffer" : 0,
            "byteLength" : 2688,
            "byteOffset" : 231368
        },
        {
            "buffer" : 0,
            "byteLength" : 1008,
            "byteOffset" : 234056
        },
        {
            "buffer" : 0,
            "byteLength" : 20520,
            "byteOffset" : 235064
        },
        {
            "buffer" : 0,
            "byteLength" : 20520,
            "byteOffset" : 255584
        },
        {
            "buffer" : 0,
            "byteLength" : 13680,
            "byteOffset" : 276104
        },
        {
            "buffer" : 0,
            "byteLength" : 5208,
            "byteOffset" : 289784
        },
        {
            "buffer" : 0,
            "byteLength" : 10224,
            "byteOffset" : 294992
        },
        {
            "buffer" : 0,
            "byteLength" : 10224,
            "byteOffset" : 305216
        },
        {
            "buffer" : 0,
            "byteLength" : 6816,
            "byteOffset" : 315440
        },
        {
            "buffer" : 0,
            "byteLength" : 3468,
            "byteOffset" : 322256
        }
    ],
    "buffers" : [
        {
            "byteLength" : 325724,
            "uri" : "data:application/octet-stream;base64,"
        }
    ]
}
