{
    "asset" : {
        "generator" : "Khronos glTF Blender I/O v1.7.33",
        "version" : "2.0"
    },
    "scene" : 0,
    "scenes" : [
        {
            "name" : "Scene",
            "nodes" : [
                0
            ]
        }
    ],
    "nodes" : [
        {
            "mesh" : 0,
            "name" : "Structure_1",
            "scale" : [
                0.897076427936554,
                0.897076427936554,
                0.897076427936554
            ]
        }
    ],
    "materials" : [
        {
            "doubleSided" : true,
            "name" : "Red",
            "pbrMetallicRoughness" : {
                "baseColorFactor" : [
                    0.3263714909553528,
                    0.047813333570957184,
                    0.044884875416755676,
                    1
                ],
                "metallicFactor" : 0,
                "roughnessFactor" : 0.5
            }
        },
        {
            "doubleSided" : true,
            "name" : "Cardboard",
            "pbrMetallicRoughness" : {
                "baseColorFactor" : [
                    0.4109334349632263,
                    0.2009478062391281,
                    0.08130298554897308,
                    1
                ],
                "metallicFactor" : 0,
                "roughnessFactor" : 0.5
            }
        },
        {
            "doubleSided" : true,
            "name" : "Tape",
            "pbrMetallicRoughness" : {
                "baseColorFactor" : [
                    0.4109334349632263,
                    0.37330713868141174,
                    0.2728308141231537,
                    1
                ],
                "metallicFactor" : 0,
                "roughnessFactor" : 0.5
            }
        },
        {
            "doubleSided" : true,
            "name" : "Wood",
            "pbrMetallicRoughness" : {
                "baseColorFactor" : [
                    0.3757452964782715,
                    0.20292167365550995,
                    0.0587104856967926,
                    1
                ],
                "metallicFactor" : 0,
                "roughnessFactor" : 0.5
            }
        },
        {
            "doubleSided" : true,
            "name" : "Grey",
            "pbrMetallicRoughness" : {
                "baseColorFactor" : [
                    0.2746773064136505,
                    0.28744083642959595,
                    0.35153263807296753,
                    1
                ],
                "metallicFactor" : 0,
                "roughnessFactor" : 0.5
            }
        },
        {
            "doubleSided" : true,
            "name" : "Grey2",
            "pbrMetallicRoughness" : {
                "baseColorFactor" : [
                    0.14239658415317535,
                    0.14239658415317535,
                    0.14239658415317535,
                    1
                ],
                "metallicFactor" : 0,
                "roughnessFactor" : 0.5
            }
        }
    ],
    "meshes" : [
        {
            "name" : "Cube.035",
            "primitives" : [
                {
                    "attributes" : {
                        "POSITION" : 0,
                        "NORMAL" : 1,
                        "TEXCOORD_0" : 2
                    },
                    "indices" : 3,
                    "material" : 0
                },
                {
                    "attributes" : {
                        "POSITION" : 4,
                        "NORMAL" : 5,
                        "TEXCOORD_0" : 6
                    },
                    "indices" : 7,
                    "material" : 1
                },
                {
                    "attributes" : {
                        "POSITION" : 8,
                        "NORMAL" : 9,
                        "TEXCOORD_0" : 10
                    },
                    "indices" : 11,
                    "material" : 2
                },
                {
                    "attributes" : {
                        "POSITION" : 12,
                        "NORMAL" : 13,
                        "TEXCOORD_0" : 14
                    },
                    "indices" : 15,
                    "material" : 3
                },
                {
                    "attributes" : {
                        "POSITION" : 16,
                        "NORMAL" : 17,
                        "TEXCOORD_0" : 18
                    },
                    "indices" : 19,
                    "material" : 4
                },
                {
                    "attributes" : {
                        "POSITION" : 20,
                        "NORMAL" : 21,
                        "TEXCOORD_0" : 22
                    },
                    "indices" : 23,
                    "material" : 5
                }
            ]
        }
    ],
    "accessors" : [
        {
            "bufferView" : 0,
            "componentType" : 5126,
            "count" : 1091,
            "max" : [
                3.6848480701446533,
                3.7125518321990967,
                1.9889132976531982
            ],
            "min" : [
                -3.6848480701446533,
                0.09224808216094971,
                -1.9889132976531982
            ],
            "type" : "VEC3"
        },
        {
            "bufferView" : 1,
            "componentType" : 5126,
            "count" : 1091,
            "type" : "VEC3"
        },
        {
            "bufferView" : 2,
            "componentType" : 5126,
            "count" : 1091,
            "type" : "VEC2"
        },
        {
            "bufferView" : 3,
            "componentType" : 5123,
            "count" : 2004,
            "type" : "SCALAR"
        },
        {
            "bufferView" : 4,
            "componentType" : 5126,
            "count" : 1417,
            "max" : [
                -3.771231174468994,
                2.5136172771453857,
                1.4214744567871094
            ],
            "min" : [
                -5.170486927032471,
                0,
                -1.6772959232330322
            ],
            "type" : "VEC3"
        },
        {
            "bufferView" : 5,
            "componentType" : 5126,
            "count" : 1417,
            "type" : "VEC3"
        },
        {
            "bufferView" : 6,
            "componentType" : 5126,
            "count" : 1417,
            "type" : "VEC2"
        },
        {
            "bufferView" : 7,
            "componentType" : 5123,
            "count" : 2160,
            "type" : "SCALAR"
        },
        {
            "bufferView" : 8,
            "componentType" : 5126,
            "count" : 286,
            "max" : [
                -3.7844858169555664,
                2.5136172771453857,
                1.23781418800354
            ],
            "min" : [
                -5.16091775894165,
                0.024974822998046875,
                -1.5920131206512451
            ],
            "type" : "VEC3"
        },
        {
            "bufferView" : 9,
            "componentType" : 5126,
            "count" : 286,
            "type" : "VEC3"
        },
        {
            "bufferView" : 10,
            "componentType" : 5126,
            "count" : 286,
            "type" : "VEC2"
        },
        {
            "bufferView" : 11,
            "componentType" : 5123,
            "count" : 432,
            "type" : "SCALAR"
        },
        {
            "bufferView" : 12,
            "componentType" : 5126,
            "count" : 1580,
            "max" : [
                1.753148078918457,
                3.771817445755005,
                2.7482454776763916
            ],
            "min" : [
                -3.8183064460754395,
                -0.058606505393981934,
                -0.9523869752883911
            ],
            "type" : "VEC3"
        },
        {
            "bufferView" : 13,
            "componentType" : 5126,
            "count" : 1580,
            "type" : "VEC3"
        },
        {
            "bufferView" : 14,
            "componentType" : 5126,
            "count" : 1580,
            "type" : "VEC2"
        },
        {
            "bufferView" : 15,
            "componentType" : 5123,
            "count" : 2376,
            "type" : "SCALAR"
        },
        {
            "bufferView" : 16,
            "componentType" : 5126,
            "count" : 1957,
            "max" : [
                3.71970534324646,
                5.024496555328369,
                2.984139919281006
            ],
            "min" : [
                -3.71970534324646,
                -0.009882330894470215,
                -2.0138046741485596
            ],
            "type" : "VEC3"
        },
        {
            "bufferView" : 17,
            "componentType" : 5126,
            "count" : 1957,
            "type" : "VEC3"
        },
        {
            "bufferView" : 18,
            "componentType" : 5126,
            "count" : 1957,
            "type" : "VEC2"
        },
        {
            "bufferView" : 19,
            "componentType" : 5123,
            "count" : 3870,
            "type" : "SCALAR"
        },
        {
            "bufferView" : 20,
            "componentType" : 5126,
            "count" : 476,
            "max" : [
                3.432927131652832,
                3.453011989593506,
                3.026289939880371
            ],
            "min" : [
                -2.4222004413604736,
                -0.03127574920654297,
                1.9346928596496582
            ],
            "type" : "VEC3"
        },
        {
            "bufferView" : 21,
            "componentType" : 5126,
            "count" : 476,
            "type" : "VEC3"
        },
        {
            "bufferView" : 22,
            "componentType" : 5126,
            "count" : 476,
            "type" : "VEC2"
        },
        {
            "bufferView" : 23,
            "componentType" : 5123,
            "count" : 1056,
            "type" : "SCALAR"
        }
    ],
    "bufferViews" : [
        {
            "buffer" : 0,
            "byteLength" : 13092,
            "byteOffset" : 0
        },
        {
            "buffer" : 0,
            "byteLength" : 13092,
            "byteOffset" : 13092
        },
        {
            "buffer" : 0,
            "byteLength" : 8728,
            "byteOffset" : 26184
        },
        {
            "buffer" : 0,
            "byteLength" : 4008,
            "byteOffset" : 34912
        },
        {
            "buffer" : 0,
            "byteLength" : 17004,
            "byteOffset" : 38920
        },
        {
            "buffer" : 0,
            "byteLength" : 17004,
            "byteOffset" : 55924
        },
        {
            "buffer" : 0,
            "byteLength" : 11336,
            "byteOffset" : 72928
        },
        {
            "buffer" : 0,
            "byteLength" : 4320,
            "byteOffset" : 84264
        },
        {
            "buffer" : 0,
            "byteLength" : 3432,
            "byteOffset" : 88584
        },
        {
            "buffer" : 0,
            "byteLength" : 3432,
            "byteOffset" : 92016
        },
        {
            "buffer" : 0,
            "byteLength" : 2288,
            "byteOffset" : 95448
        },
        {
            "buffer" : 0,
            "byteLength" : 864,
            "byteOffset" : 97736
        },
        {
            "buffer" : 0,
            "byteLength" : 18960,
            "byteOffset" : 98600
        },
        {
            "buffer" : 0,
            "byteLength" : 18960,
            "byteOffset" : 117560
        },
        {
            "buffer" : 0,
            "byteLength" : 12640,
            "byteOffset" : 136520
        },
        {
            "buffer" : 0,
            "byteLength" : 4752,
            "byteOffset" : 149160
        },
        {
            "buffer" : 0,
            "byteLength" : 23484,
            "byteOffset" : 153912
        },
        {
            "buffer" : 0,
            "byteLength" : 23484,
            "byteOffset" : 177396
        },
        {
            "buffer" : 0,
            "byteLength" : 15656,
            "byteOffset" : 200880
        },
        {
            "buffer" : 0,
            "byteLength" : 7740,
            "byteOffset" : 216536
        },
        {
            "buffer" : 0,
            "byteLength" : 5712,
            "byteOffset" : 224276
        },
        {
            "buffer" : 0,
            "byteLength" : 5712,
            "byteOffset" : 229988
        },
        {
            "buffer" : 0,
            "byteLength" : 3808,
            "byteOffset" : 235700
        },
        {
            "buffer" : 0,
            "byteLength" : 2112,
            "byteOffset" : 239508
        }
    ],
    "buffers" : [
        {
            "byteLength" : 241620,
            "uri" : "data:application/octet-stream;base64,"
        }
    ]
}
