{
    "asset" : {
        "generator" : "Khronos glTF Blender I/O v1.7.33",
        "version" : "2.0"
    },
    "scene" : 0,
    "scenes" : [
        {
            "name" : "Scene",
            "nodes" : [
                0
            ]
        }
    ],
    "nodes" : [
        {
            "mesh" : 0,
            "name" : "Tank",
            "scale" : [
                1.122908353805542,
                1.122908353805542,
                1.122908353805542
            ]
        }
    ],
    "materials" : [
        {
            "doubleSided" : true,
            "name" : "Grey",
            "pbrMetallicRoughness" : {
                "baseColorFactor" : [
                    0.2746773064136505,
                    0.28744083642959595,
                    0.35153263807296753,
                    1
                ],
                "metallicFactor" : 0,
                "roughnessFactor" : 0.5
            }
        },
        {
            "doubleSided" : true,
            "name" : "Tank_Main",
            "pbrMetallicRoughness" : {
                "baseColorFactor" : [
                    0.4769843518733978,
                    0.3066019117832184,
                    0.009248296730220318,
                    1
                ],
                "metallicFactor" : 0,
                "roughnessFactor" : 0.5
            }
        },
        {
            "doubleSided" : true,
            "name" : "Tank_Main2",
            "pbrMetallicRoughness" : {
                "baseColorFactor" : [
                    0.5704647898674011,
                    0.32698577642440796,
                    0.008357713930308819,
                    1
                ],
                "metallicFactor" : 0,
                "roughnessFactor" : 0.5
            }
        },
        {
            "doubleSided" : true,
            "name" : "Black.001",
            "pbrMetallicRoughness" : {
                "baseColorFactor" : [
                    0.04202592372894287,
                    0.04202592372894287,
                    0.04202592372894287,
                    1
                ],
                "metallicFactor" : 0,
                "roughnessFactor" : 0.5
            }
        }
    ],
    "meshes" : [
        {
            "name" : "Cylinder.010",
            "primitives" : [
                {
                    "attributes" : {
                        "POSITION" : 0,
                        "NORMAL" : 1
                    },
                    "indices" : 2,
                    "material" : 0
                },
                {
                    "attributes" : {
                        "POSITION" : 3,
                        "NORMAL" : 4
                    },
                    "indices" : 5,
                    "material" : 1
                },
                {
                    "attributes" : {
                        "POSITION" : 6,
                        "NORMAL" : 7
                    },
                    "indices" : 8,
                    "material" : 2
                },
                {
                    "attributes" : {
                        "POSITION" : 9,
                        "NORMAL" : 10
                    },
                    "indices" : 11,
                    "material" : 3
                }
            ]
        }
    ],
    "accessors" : [
        {
            "bufferView" : 0,
            "componentType" : 5126,
            "count" : 1152,
            "max" : [
                1.0432918071746826,
                0.5431704521179199,
                0.5611900091171265
            ],
            "min" : [
                -1.0432918071746826,
                0.08687898516654968,
                -0.7355009317398071
            ],
            "type" : "VEC3"
        },
        {
            "bufferView" : 1,
            "componentType" : 5126,
            "count" : 1152,
            "type" : "VEC3"
        },
        {
            "bufferView" : 2,
            "componentType" : 5123,
            "count" : 3384,
            "type" : "SCALAR"
        },
        {
            "bufferView" : 3,
            "componentType" : 5126,
            "count" : 545,
            "max" : [
                1.018129587173462,
                1.8397338390350342,
                0.9370030164718628
            ],
            "min" : [
                -1.018129587173462,
                0.36359453201293945,
                -0.9905001521110535
            ],
            "type" : "VEC3"
        },
        {
            "bufferView" : 4,
            "componentType" : 5126,
            "count" : 545,
            "type" : "VEC3"
        },
        {
            "bufferView" : 5,
            "componentType" : 5123,
            "count" : 1398,
            "type" : "SCALAR"
        },
        {
            "bufferView" : 6,
            "componentType" : 5126,
            "count" : 735,
            "max" : [
                1.0563900470733643,
                1.909904956817627,
                1.214970588684082
            ],
            "min" : [
                -1.0563900470733643,
                0.45747458934783936,
                -1.013956904411316
            ],
            "type" : "VEC3"
        },
        {
            "bufferView" : 7,
            "componentType" : 5126,
            "count" : 735,
            "type" : "VEC3"
        },
        {
            "bufferView" : 8,
            "componentType" : 5123,
            "count" : 1746,
            "type" : "SCALAR"
        },
        {
            "bufferView" : 9,
            "componentType" : 5126,
            "count" : 1248,
            "max" : [
                1.0049190521240234,
                0.6369352340698242,
                0.6517789959907532
            ],
            "min" : [
                -1.0049190521240234,
                0.0010318160057067871,
                -0.833368718624115
            ],
            "type" : "VEC3"
        },
        {
            "bufferView" : 10,
            "componentType" : 5126,
            "count" : 1248,
            "type" : "VEC3"
        },
        {
            "bufferView" : 11,
            "componentType" : 5123,
            "count" : 1872,
            "type" : "SCALAR"
        }
    ],
    "bufferViews" : [
        {
            "buffer" : 0,
            "byteLength" : 13824,
            "byteOffset" : 0
        },
        {
            "buffer" : 0,
            "byteLength" : 13824,
            "byteOffset" : 13824
        },
        {
            "buffer" : 0,
            "byteLength" : 6768,
            "byteOffset" : 27648
        },
        {
            "buffer" : 0,
            "byteLength" : 6540,
            "byteOffset" : 34416
        },
        {
            "buffer" : 0,
            "byteLength" : 6540,
            "byteOffset" : 40956
        },
        {
            "buffer" : 0,
            "byteLength" : 2796,
            "byteOffset" : 47496
        },
        {
            "buffer" : 0,
            "byteLength" : 8820,
            "byteOffset" : 50292
        },
        {
            "buffer" : 0,
            "byteLength" : 8820,
            "byteOffset" : 59112
        },
        {
            "buffer" : 0,
            "byteLength" : 3492,
            "byteOffset" : 67932
        },
        {
            "buffer" : 0,
            "byteLength" : 14976,
            "byteOffset" : 71424
        },
        {
            "buffer" : 0,
            "byteLength" : 14976,
            "byteOffset" : 86400
        },
        {
            "buffer" : 0,
            "byteLength" : 3744,
            "byteOffset" : 101376
        }
    ],
    "buffers" : [
        {
            "byteLength" : 105120,
            "uri" : "data:application/octet-stream;base64,"
        }
    ]
}
