{
    "asset" : {
        "generator" : "Khronos glTF Blender I/O v1.7.33",
        "version" : "2.0"
    },
    "scene" : 0,
    "scenes" : [
        {
            "name" : "Scene",
            "nodes" : [
                0
            ]
        }
    ],
    "nodes" : [
        {
            "mesh" : 0,
            "name" : "TrashContainer",
            "scale" : [
                0.5860000252723694,
                0.5860000252723694,
                0.5860000252723694
            ]
        }
    ],
    "materials" : [
        {
            "doubleSided" : true,
            "name" : "Green",
            "pbrMetallicRoughness" : {
                "baseColorFactor" : [
                    0.08282432705163956,
                    0.1574288308620453,
                    0.01932036504149437,
                    1
                ],
                "metallicFactor" : 0,
                "roughnessFactor" : 0.5
            }
        },
        {
            "doubleSided" : true,
            "name" : "DarkGrey",
            "pbrMetallicRoughness" : {
                "baseColorFactor" : [
                    0.0666259378194809,
                    0.0666259378194809,
                    0.0666259378194809,
                    1
                ],
                "metallicFactor" : 0,
                "roughnessFactor" : 0.5
            }
        },
        {
            "doubleSided" : true,
            "name" : "Grey",
            "pbrMetallicRoughness" : {
                "baseColorFactor" : [
                    0.2746773064136505,
                    0.28744083642959595,
                    0.35153263807296753,
                    1
                ],
                "metallicFactor" : 0,
                "roughnessFactor" : 0.5
            }
        }
    ],
    "meshes" : [
        {
            "name" : "Cube.053",
            "primitives" : [
                {
                    "attributes" : {
                        "POSITION" : 0,
                        "NORMAL" : 1
                    },
                    "indices" : 2,
                    "material" : 0
                },
                {
                    "attributes" : {
                        "POSITION" : 3,
                        "NORMAL" : 4
                    },
                    "indices" : 5,
                    "material" : 1
                },
                {
                    "attributes" : {
                        "POSITION" : 6,
                        "NORMAL" : 7
                    },
                    "indices" : 8,
                    "material" : 2
                }
            ]
        }
    ],
    "accessors" : [
        {
            "bufferView" : 0,
            "componentType" : 5126,
            "count" : 332,
            "max" : [
                2.0832786560058594,
                3.159392833709717,
                1.1054131984710693
            ],
            "min" : [
                -2.0832786560058594,
                -0.06866271048784256,
                -1.1054142713546753
            ],
            "type" : "VEC3"
        },
        {
            "bufferView" : 1,
            "componentType" : 5126,
            "count" : 332,
            "type" : "VEC3"
        },
        {
            "bufferView" : 2,
            "componentType" : 5123,
            "count" : 516,
            "type" : "SCALAR"
        },
        {
            "bufferView" : 3,
            "componentType" : 5126,
            "count" : 240,
            "max" : [
                1.8574570417404175,
                3.3958327770233154,
                1.0080896615982056
            ],
            "min" : [
                -1.8574570417404175,
                2.2017438411712646,
                -1.042737603187561
            ],
            "type" : "VEC3"
        },
        {
            "bufferView" : 4,
            "componentType" : 5126,
            "count" : 240,
            "type" : "VEC3"
        },
        {
            "bufferView" : 5,
            "componentType" : 5123,
            "count" : 360,
            "type" : "SCALAR"
        },
        {
            "bufferView" : 6,
            "componentType" : 5126,
            "count" : 20,
            "max" : [
                1.7156065702438354,
                1.2034146785736084,
                1.0344034433364868
            ],
            "min" : [
                -1.7156065702438354,
                0.5020909905433655,
                0.9724516272544861
            ],
            "type" : "VEC3"
        },
        {
            "bufferView" : 7,
            "componentType" : 5126,
            "count" : 20,
            "type" : "VEC3"
        },
        {
            "bufferView" : 8,
            "componentType" : 5123,
            "count" : 30,
            "type" : "SCALAR"
        }
    ],
    "bufferViews" : [
        {
            "buffer" : 0,
            "byteLength" : 3984,
            "byteOffset" : 0
        },
        {
            "buffer" : 0,
            "byteLength" : 3984,
            "byteOffset" : 3984
        },
        {
            "buffer" : 0,
            "byteLength" : 1032,
            "byteOffset" : 7968
        },
        {
            "buffer" : 0,
            "byteLength" : 2880,
            "byteOffset" : 9000
        },
        {
            "buffer" : 0,
            "byteLength" : 2880,
            "byteOffset" : 11880
        },
        {
            "buffer" : 0,
            "byteLength" : 720,
            "byteOffset" : 14760
        },
        {
            "buffer" : 0,
            "byteLength" : 240,
            "byteOffset" : 15480
        },
        {
            "buffer" : 0,
            "byteLength" : 240,
            "byteOffset" : 15720
        },
        {
            "buffer" : 0,
            "byteLength" : 60,
            "byteOffset" : 15960
        }
    ],
    "buffers" : [
        {
            "byteLength" : 16020,
            "uri" : "data:application/octet-stream;base64,"
        }
    ]
}
