{
    "asset" : {
        "generator" : "Khronos glTF Blender I/O v1.7.33",
        "version" : "2.0"
    },
    "scene" : 0,
    "scenes" : [
        {
            "name" : "Scene",
            "nodes" : [
                0
            ]
        }
    ],
    "nodes" : [
        {
            "mesh" : 0,
            "name" : "TrashContainer_Open",
            "scale" : [
                0.5860000252723694,
                0.5860000252723694,
                0.5860000252723694
            ]
        }
    ],
    "materials" : [
        {
            "doubleSided" : true,
            "name" : "Green",
            "pbrMetallicRoughness" : {
                "baseColorFactor" : [
                    0.08282432705163956,
                    0.1574288308620453,
                    0.01932036504149437,
                    1
                ],
                "metallicFactor" : 0,
                "roughnessFactor" : 0.5
            }
        },
        {
            "doubleSided" : true,
            "name" : "DarkGrey",
            "pbrMetallicRoughness" : {
                "baseColorFactor" : [
                    0.0666259378194809,
                    0.0666259378194809,
                    0.0666259378194809,
                    1
                ],
                "metallicFactor" : 0,
                "roughnessFactor" : 0.5
            }
        },
        {
            "doubleSided" : true,
            "name" : "Grey",
            "pbrMetallicRoughness" : {
                "baseColorFactor" : [
                    0.2746773064136505,
                    0.28744083642959595,
                    0.35153263807296753,
                    1
                ],
                "metallicFactor" : 0,
                "roughnessFactor" : 0.5
            }
        },
        {
            "doubleSided" : true,
            "name" : "Black",
            "pbrMetallicRoughness" : {
                "baseColorFactor" : [
                    0.02364896982908249,
                    0.02364896982908249,
                    0.02364896982908249,
                    1
                ],
                "metallicFactor" : 0,
                "roughnessFactor" : 0.5
            }
        },
        {
            "doubleSided" : true,
            "name" : "Oil",
            "pbrMetallicRoughness" : {
                "baseColorFactor" : [
                    0.17335163056850433,
                    0.0937139242887497,
                    0.04791107773780823,
                    1
                ],
                "metallicFactor" : 0,
                "roughnessFactor" : 0.5
            }
        }
    ],
    "meshes" : [
        {
            "name" : "Cube.017",
            "primitives" : [
                {
                    "attributes" : {
                        "POSITION" : 0,
                        "NORMAL" : 1
                    },
                    "indices" : 2,
                    "material" : 0
                },
                {
                    "attributes" : {
                        "POSITION" : 3,
                        "NORMAL" : 4
                    },
                    "indices" : 5,
                    "material" : 1
                },
                {
                    "attributes" : {
                        "POSITION" : 6,
                        "NORMAL" : 7
                    },
                    "indices" : 8,
                    "material" : 2
                },
                {
                    "attributes" : {
                        "POSITION" : 9,
                        "NORMAL" : 10
                    },
                    "indices" : 11,
                    "material" : 3
                },
                {
                    "attributes" : {
                        "POSITION" : 12,
                        "NORMAL" : 13
                    },
                    "indices" : 14,
                    "material" : 4
                }
            ]
        }
    ],
    "accessors" : [
        {
            "bufferView" : 0,
            "componentType" : 5126,
            "count" : 226,
            "max" : [
                2.1983330249786377,
                3.333878755569458,
                1.1664631366729736
            ],
            "min" : [
                -2.1983330249786377,
                -0.0724547952413559,
                -1.1664631366729736
            ],
            "type" : "VEC3"
        },
        {
            "bufferView" : 1,
            "componentType" : 5126,
            "count" : 226,
            "type" : "VEC3"
        },
        {
            "bufferView" : 2,
            "componentType" : 5123,
            "count" : 504,
            "type" : "SCALAR"
        },
        {
            "bufferView" : 3,
            "componentType" : 5126,
            "count" : 240,
            "max" : [
                1.9600400924682617,
                5.575115203857422,
                1.063763976097107
            ],
            "min" : [
                -1.9600399732589722,
                2.323341131210327,
                -1.4515010118484497
            ],
            "type" : "VEC3"
        },
        {
            "bufferView" : 4,
            "componentType" : 5126,
            "count" : 240,
            "type" : "VEC3"
        },
        {
            "bufferView" : 5,
            "componentType" : 5123,
            "count" : 360,
            "type" : "SCALAR"
        },
        {
            "bufferView" : 6,
            "componentType" : 5126,
            "count" : 20,
            "max" : [
                1.810355544090271,
                1.269876480102539,
                1.091531753540039
            ],
            "min" : [
                -1.810355544090271,
                0.5298203229904175,
                1.026158332824707
            ],
            "type" : "VEC3"
        },
        {
            "bufferView" : 7,
            "componentType" : 5126,
            "count" : 20,
            "type" : "VEC3"
        },
        {
            "bufferView" : 8,
            "componentType" : 5123,
            "count" : 30,
            "type" : "SCALAR"
        },
        {
            "bufferView" : 9,
            "componentType" : 5126,
            "count" : 1295,
            "max" : [
                1.9246599674224854,
                3.479914665222168,
                2.3173904418945312
            ],
            "min" : [
                -3.1990725994110107,
                -0.11606666445732117,
                -0.9507500529289246
            ],
            "type" : "VEC3"
        },
        {
            "bufferView" : 10,
            "componentType" : 5126,
            "count" : 1295,
            "type" : "VEC3"
        },
        {
            "bufferView" : 11,
            "componentType" : 5123,
            "count" : 2604,
            "type" : "SCALAR"
        },
        {
            "bufferView" : 12,
            "componentType" : 5126,
            "count" : 132,
            "max" : [
                -0.19259841740131378,
                0.12670259177684784,
                3.0286126136779785
            ],
            "min" : [
                -2.497774839401245,
                0.022814998403191566,
                1.1171964406967163
            ],
            "type" : "VEC3"
        },
        {
            "bufferView" : 13,
            "componentType" : 5126,
            "count" : 132,
            "type" : "VEC3"
        },
        {
            "bufferView" : 14,
            "componentType" : 5123,
            "count" : 624,
            "type" : "SCALAR"
        }
    ],
    "bufferViews" : [
        {
            "buffer" : 0,
            "byteLength" : 2712,
            "byteOffset" : 0
        },
        {
            "buffer" : 0,
            "byteLength" : 2712,
            "byteOffset" : 2712
        },
        {
            "buffer" : 0,
            "byteLength" : 1008,
            "byteOffset" : 5424
        },
        {
            "buffer" : 0,
            "byteLength" : 2880,
            "byteOffset" : 6432
        },
        {
            "buffer" : 0,
            "byteLength" : 2880,
            "byteOffset" : 9312
        },
        {
            "buffer" : 0,
            "byteLength" : 720,
            "byteOffset" : 12192
        },
        {
            "buffer" : 0,
            "byteLength" : 240,
            "byteOffset" : 12912
        },
        {
            "buffer" : 0,
            "byteLength" : 240,
            "byteOffset" : 13152
        },
        {
            "buffer" : 0,
            "byteLength" : 60,
            "byteOffset" : 13392
        },
        {
            "buffer" : 0,
            "byteLength" : 15540,
            "byteOffset" : 13452
        },
        {
            "buffer" : 0,
            "byteLength" : 15540,
            "byteOffset" : 28992
        },
        {
            "buffer" : 0,
            "byteLength" : 5208,
            "byteOffset" : 44532
        },
        {
            "buffer" : 0,
            "byteLength" : 1584,
            "byteOffset" : 49740
        },
        {
            "buffer" : 0,
            "byteLength" : 1584,
            "byteOffset" : 51324
        },
        {
            "buffer" : 0,
            "byteLength" : 1248,
            "byteOffset" : 52908
        }
    ],
    "buffers" : [
        {
            "byteLength" : 54156,
            "uri" : "data:application/octet-stream;base64,"
        }
    ]
}
