{
    "asset" : {
        "generator" : "Khronos glTF Blender I/O v1.7.33",
        "version" : "2.0"
    },
    "scene" : 0,
    "scenes" : [
        {
            "name" : "Scene",
            "nodes" : [
                0
            ]
        }
    ],
    "nodes" : [
        {
            "mesh" : 0,
            "name" : "Tree_4",
            "scale" : [
                0.3104552924633026,
                0.3104552924633026,
                0.3104552924633026
            ]
        }
    ],
    "materials" : [
        {
            "doubleSided" : true,
            "name" : "Tree_Wood",
            "pbrMetallicRoughness" : {
                "baseColorFactor" : [
                    0.14238348603248596,
                    0.08724373579025269,
                    0.044256653636693954,
                    1
                ],
                "metallicFactor" : 0,
                "roughnessFactor" : 0.5
            }
        },
        {
            "doubleSided" : true,
            "name" : "Tree_Green",
            "pbrMetallicRoughness" : {
                "baseColorFactor" : [
                    0.18556469678878784,
                    0.26675671339035034,
                    0.024046624079346657,
                    1
                ],
                "metallicFactor" : 0,
                "roughnessFactor" : 0.5
            }
        }
    ],
    "meshes" : [
        {
            "name" : "Cube.041",
            "primitives" : [
                {
                    "attributes" : {
                        "POSITION" : 0,
                        "NORMAL" : 1
                    },
                    "indices" : 2,
                    "material" : 0
                },
                {
                    "attributes" : {
                        "POSITION" : 3,
                        "NORMAL" : 4
                    },
                    "indices" : 5,
                    "material" : 1
                }
            ]
        }
    ],
    "accessors" : [
        {
            "bufferView" : 0,
            "componentType" : 5126,
            "count" : 119,
            "max" : [
                2.5263466835021973,
                9.827905654907227,
                0.8998595476150513
            ],
            "min" : [
                -1.6987539529800415,
                0.0019386857748031616,
                -0.9269112944602966
            ],
            "type" : "VEC3"
        },
        {
            "bufferView" : 1,
            "componentType" : 5126,
            "count" : 119,
            "type" : "VEC3"
        },
        {
            "bufferView" : 2,
            "componentType" : 5123,
            "count" : 648,
            "type" : "SCALAR"
        },
        {
            "bufferView" : 3,
            "componentType" : 5126,
            "count" : 416,
            "max" : [
                5.3749799728393555,
                16.35208511352539,
                4.238971710205078
            ],
            "min" : [
                -5.261987686157227,
                6.597260475158691,
                -4.238971710205078
            ],
            "type" : "VEC3"
        },
        {
            "bufferView" : 4,
            "componentType" : 5126,
            "count" : 416,
            "type" : "VEC3"
        },
        {
            "bufferView" : 5,
            "componentType" : 5123,
            "count" : 2484,
            "type" : "SCALAR"
        }
    ],
    "bufferViews" : [
        {
            "buffer" : 0,
            "byteLength" : 1428,
            "byteOffset" : 0
        },
        {
            "buffer" : 0,
            "byteLength" : 1428,
            "byteOffset" : 1428
        },
        {
            "buffer" : 0,
            "byteLength" : 1296,
            "byteOffset" : 2856
        },
        {
            "buffer" : 0,
            "byteLength" : 4992,
            "byteOffset" : 4152
        },
        {
            "buffer" : 0,
            "byteLength" : 4992,
            "byteOffset" : 9144
        },
        {
            "buffer" : 0,
            "byteLength" : 4968,
            "byteOffset" : 14136
        }
    ],
    "buffers" : [
        {
            "byteLength" : 19104,
            "uri" : "data:application/octet-stream;base64,"
        }
    ]
}
