{
    "asset" : {
        "generator" : "Khronos glTF Blender I/O v1.7.33",
        "version" : "2.0"
    },
    "scene" : 0,
    "scenes" : [
        {
            "name" : "Scene",
            "nodes" : [
                0
            ]
        }
    ],
    "nodes" : [
        {
            "mesh" : 0,
            "name" : "Tree_3",
            "scale" : [
                0.5184287428855896,
                0.5184287428855896,
                0.5184287428855896
            ]
        }
    ],
    "materials" : [
        {
            "doubleSided" : true,
            "name" : "Tree_Green",
            "pbrMetallicRoughness" : {
                "baseColorFactor" : [
                    0.18556469678878784,
                    0.26675671339035034,
                    0.024046624079346657,
                    1
                ],
                "metallicFactor" : 0,
                "roughnessFactor" : 0.5
            }
        },
        {
            "doubleSided" : true,
            "name" : "Tree_Wood",
            "pbrMetallicRoughness" : {
                "baseColorFactor" : [
                    0.14238348603248596,
                    0.08724373579025269,
                    0.044256653636693954,
                    1
                ],
                "metallicFactor" : 0,
                "roughnessFactor" : 0.5
            }
        }
    ],
    "meshes" : [
        {
            "name" : "Mesh.001",
            "primitives" : [
                {
                    "attributes" : {
                        "POSITION" : 0,
                        "NORMAL" : 1
                    },
                    "indices" : 2,
                    "material" : 0
                },
                {
                    "attributes" : {
                        "POSITION" : 3,
                        "NORMAL" : 4
                    },
                    "indices" : 5,
                    "material" : 1
                }
            ]
        }
    ],
    "accessors" : [
        {
            "bufferView" : 0,
            "componentType" : 5126,
            "count" : 1100,
            "max" : [
                3.8120462894439697,
                10.780651092529297,
                2.5459604263305664
            ],
            "min" : [
                -4.416886329650879,
                4.808006763458252,
                -2.5459580421447754
            ],
            "type" : "VEC3"
        },
        {
            "bufferView" : 1,
            "componentType" : 5126,
            "count" : 1100,
            "type" : "VEC3"
        },
        {
            "bufferView" : 2,
            "componentType" : 5123,
            "count" : 6588,
            "type" : "SCALAR"
        },
        {
            "bufferView" : 3,
            "componentType" : 5126,
            "count" : 119,
            "max" : [
                1.6436810493469238,
                5.884172439575195,
                0.5388710498809814
            ],
            "min" : [
                -1.344376564025879,
                0,
                -0.5550706386566162
            ],
            "type" : "VEC3"
        },
        {
            "bufferView" : 4,
            "componentType" : 5126,
            "count" : 119,
            "type" : "VEC3"
        },
        {
            "bufferView" : 5,
            "componentType" : 5123,
            "count" : 648,
            "type" : "SCALAR"
        }
    ],
    "bufferViews" : [
        {
            "buffer" : 0,
            "byteLength" : 13200,
            "byteOffset" : 0
        },
        {
            "buffer" : 0,
            "byteLength" : 13200,
            "byteOffset" : 13200
        },
        {
            "buffer" : 0,
            "byteLength" : 13176,
            "byteOffset" : 26400
        },
        {
            "buffer" : 0,
            "byteLength" : 1428,
            "byteOffset" : 39576
        },
        {
            "buffer" : 0,
            "byteLength" : 1428,
            "byteOffset" : 41004
        },
        {
            "buffer" : 0,
            "byteLength" : 1296,
            "byteOffset" : 42432
        }
    ],
    "buffers" : [
        {
            "byteLength" : 43728,
            "uri" : "data:application/octet-stream;base64,"
        }
    ]
}
