{
    "asset" : {
        "generator" : "Khronos glTF Blender I/O v1.7.33",
        "version" : "2.0"
    },
    "scene" : 0,
    "scenes" : [
        {
            "name" : "Scene",
            "nodes" : [
                0
            ]
        }
    ],
    "nodes" : [
        {
            "mesh" : 0,
            "name" : "WaterTank_Floor",
            "rotation" : [
                0.5000000596046448,
                -0.5,
                -0.5,
                0.5000001192092896
            ],
            "scale" : [
                0.8800932765007019,
                0.8800932765007019,
                0.8800932765007019
            ]
        }
    ],
    "materials" : [
        {
            "doubleSided" : true,
            "name" : "Grey",
            "pbrMetallicRoughness" : {
                "baseColorFactor" : [
                    0.2746773064136505,
                    0.28744083642959595,
                    0.35153263807296753,
                    1
                ],
                "metallicFactor" : 0,
                "roughnessFactor" : 0.5
            }
        },
        {
            "doubleSided" : true,
            "name" : "Grey2",
            "pbrMetallicRoughness" : {
                "baseColorFactor" : [
                    0.14239658415317535,
                    0.14239658415317535,
                    0.14239658415317535,
                    1
                ],
                "metallicFactor" : 0,
                "roughnessFactor" : 0.5
            }
        },
        {
            "doubleSided" : true,
            "name" : "White",
            "pbrMetallicRoughness" : {
                "baseColorFactor" : [
                    0.6421434283256531,
                    0.6738417744636536,
                    0.5752183794975281,
                    1
                ],
                "metallicFactor" : 0,
                "roughnessFactor" : 0.5
            }
        }
    ],
    "meshes" : [
        {
            "name" : "Cylinder.015",
            "primitives" : [
                {
                    "attributes" : {
                        "POSITION" : 0,
                        "NORMAL" : 1
                    },
                    "indices" : 2,
                    "material" : 0
                },
                {
                    "attributes" : {
                        "POSITION" : 3,
                        "NORMAL" : 4
                    },
                    "indices" : 5,
                    "material" : 1
                },
                {
                    "attributes" : {
                        "POSITION" : 6,
                        "NORMAL" : 7
                    },
                    "indices" : 8,
                    "material" : 2
                }
            ]
        }
    ],
    "accessors" : [
        {
            "bufferView" : 0,
            "componentType" : 5126,
            "count" : 442,
            "max" : [
                0.004263043403625488,
                2.378912925720215,
                1.0000003576278687
            ],
            "min" : [
                -2.1401429176330566,
                -2.378912925720215,
                -0.9999997615814209
            ],
            "type" : "VEC3"
        },
        {
            "bufferView" : 1,
            "componentType" : 5126,
            "count" : 442,
            "type" : "VEC3"
        },
        {
            "bufferView" : 2,
            "componentType" : 5123,
            "count" : 1620,
            "type" : "SCALAR"
        },
        {
            "bufferView" : 3,
            "componentType" : 5126,
            "count" : 260,
            "max" : [
                0.028452515602111816,
                2.5956780910491943,
                0.9397619962692261
            ],
            "min" : [
                -2.079904317855835,
                -2.5956780910491943,
                -0.9397613406181335
            ],
            "type" : "VEC3"
        },
        {
            "bufferView" : 4,
            "componentType" : 5126,
            "count" : 260,
            "type" : "VEC3"
        },
        {
            "bufferView" : 5,
            "componentType" : 5123,
            "count" : 708,
            "type" : "SCALAR"
        },
        {
            "bufferView" : 6,
            "componentType" : 5126,
            "count" : 12,
            "max" : [
                -0.5523574948310852,
                -0.558305561542511,
                1.000000238418579
            ],
            "min" : [
                -1.449160099029541,
                -0.9504269957542419,
                -0.9999997615814209
            ],
            "type" : "VEC3"
        },
        {
            "bufferView" : 7,
            "componentType" : 5126,
            "count" : 12,
            "type" : "VEC3"
        },
        {
            "bufferView" : 8,
            "componentType" : 5123,
            "count" : 24,
            "type" : "SCALAR"
        }
    ],
    "bufferViews" : [
        {
            "buffer" : 0,
            "byteLength" : 5304,
            "byteOffset" : 0
        },
        {
            "buffer" : 0,
            "byteLength" : 5304,
            "byteOffset" : 5304
        },
        {
            "buffer" : 0,
            "byteLength" : 3240,
            "byteOffset" : 10608
        },
        {
            "buffer" : 0,
            "byteLength" : 3120,
            "byteOffset" : 13848
        },
        {
            "buffer" : 0,
            "byteLength" : 3120,
            "byteOffset" : 16968
        },
        {
            "buffer" : 0,
            "byteLength" : 1416,
            "byteOffset" : 20088
        },
        {
            "buffer" : 0,
            "byteLength" : 144,
            "byteOffset" : 21504
        },
        {
            "buffer" : 0,
            "byteLength" : 144,
            "byteOffset" : 21648
        },
        {
            "buffer" : 0,
            "byteLength" : 48,
            "byteOffset" : 21792
        }
    ],
    "buffers" : [
        {
            "byteLength" : 21840,
            "uri" : "data:application/octet-stream;base64,"
        }
    ]
}
